<svg width="834" height="834" viewBox="0 0 834 834" fill="none" xmlns="http://www.w3.org/2000/svg">
<path fill-rule="evenodd" clip-rule="evenodd" d="M475.309 556.432L418.808 832.895L361.192 556.432L235.924 598.965L281.645 475.098L0.901123 417.268L281.645 359.439L235.924 234.079L361.192 278.477L418.808 0.895264L477.168 278.477L600.95 235.198L556.715 359.439L832.901 417.268L556.715 475.098L601.693 598.965L475.309 556.432ZM415.663 281.295C523.84 285.525 551.986 371.849 552.537 414.482C552.537 521.337 463.385 551.65 418.808 553.449C311.517 555.836 282.661 464.826 281.645 419.022C281.645 308.84 370.99 281.295 415.663 281.295ZM401.936 437.051C382.148 422.996 335.268 387.247 335.268 341.341C391.039 341.341 419.37 373.401 435.337 391.469C436.103 392.336 436.841 393.171 437.553 393.969C482.504 393.969 494.347 423.614 500.4 438.765C500.687 439.483 500.96 440.168 501.224 440.816C484.115 427.636 468.068 418.839 456.464 418.839V423.175C487.571 435.07 494.978 467.283 494.978 478.434C493.345 478.434 491.654 478.481 489.909 478.53C474.766 478.957 455.522 479.499 434.492 450.042H430.825C430.339 457.872 435.106 470.778 457.281 489.638C457.191 489.638 457.099 489.638 457.004 489.639C456.854 489.639 456.697 489.64 456.536 489.64C446.722 489.683 417.189 489.811 401.936 437.051ZM525.345 521.736L578.858 573.522L548.37 489.638C544.447 499.225 531.385 515.031 525.345 521.736ZM758.842 414.482H567.763C568.202 406.428 565.507 382.014 561.181 373.708L758.842 414.482ZM522.17 308.879L575.888 256.177L493.594 286.582C505.226 293.393 517.491 304.284 522.17 308.879ZM415.663 73.1062V265.937C414.852 266.022 413.971 266.113 413.029 266.21C403.243 267.217 386.906 268.899 375.521 272.622L415.663 73.1062ZM310.855 311.475L258.39 261.37L288.734 341.341C294.184 332.14 305.752 317.596 310.855 311.475ZM65.9021 419.022H270.786C270.075 427.938 270.104 448.553 275.903 459.68L65.9021 419.022ZM344.766 545.917L259.7 577.587L313.426 524.09C320.888 530.082 338.583 543.278 344.766 545.917ZM418.808 771.769V566.207C425.696 566.207 443.992 565.027 462.076 560.308L418.808 771.769ZM479.396 466.802C471.294 466.906 461.577 467.031 436.961 448.327L443.627 439.406L473.252 461.831L448.688 433.583L456.464 426.149C467.821 437.051 481.152 456.999 481.152 466.787C480.572 466.787 479.989 466.795 479.396 466.802Z" fill="white" stroke="black" stroke-width="3"/>
</svg>
