<svg width="568" height="565" viewBox="0 0 568 565" fill="none" xmlns="http://www.w3.org/2000/svg">
<g clip-path="url(#clip0_19_10)">
<path d="M284.084 7.09863C436.753 7.09863 560.464 130.32 560.464 282.257C560.464 434.194 436.753 557.416 284.084 557.416C131.415 557.416 7.70398 434.194 7.70398 282.257C7.70416 130.32 131.415 7.09867 284.084 7.09863Z" fill="#419DC2" stroke="white" stroke-width="14"/>
<path fill-rule="evenodd" clip-rule="evenodd" d="M482.155 344.507V335H356.454V382.673L321.037 357.488L308.47 401.195L284.273 370.562L256.684 403.8L244.444 358.916L210.331 380.206V335L85.6867 335V344.507L157.046 344.507L116.53 439.736L195.941 400.031V493.798L251.447 427.581L281.024 515.095L313.436 427.581L368.132 496.863V401.195L455.043 449.786L405.044 344.507H482.155ZM368.132 344.507H391.06L427.774 420.404L368.132 387.784V344.507ZM356.454 459.644V397.322L325.821 375.844L317.37 412.463L356.454 459.644ZM261.034 417.04L281.024 475.841L304.343 417.04L281.024 387.784L261.034 417.04ZM210.331 459.644L247.302 415.103L236.659 378.484L210.331 393.21V459.644ZM195.941 344.507V387.784L135.05 420.207L172.847 344.507H195.941Z" fill="white"/>
<path fill-rule="evenodd" clip-rule="evenodd" d="M85.6868 219.417V228.924H211.387V181.251L246.804 206.435L259.371 162.728L283.569 193.361L311.157 160.123L323.397 205.007L357.51 183.717V228.924H482.155V219.417H410.796L451.311 124.187L371.901 163.893V70.1251L316.394 136.342L286.818 48.8282L254.405 136.342L199.709 67.0603V162.728L112.799 114.138L162.797 219.417H85.6868ZM199.709 219.417H176.781L140.068 143.52L199.709 176.14V219.417ZM211.387 104.279V166.601L242.02 188.08L250.471 151.461L211.387 104.279ZM306.807 146.884L286.818 88.0824L263.499 146.884L286.818 176.14L306.807 146.884ZM357.51 104.279L320.539 148.82L331.182 185.439L357.51 170.714V104.279ZM371.901 219.417V176.14L432.791 143.716L394.995 219.417H371.901Z" fill="white"/>
<path d="M113.289 263.804V245.824H156.905C164.097 245.824 170.361 246.868 175.697 248.956C181.033 251.044 185.441 253.828 188.921 257.424C192.401 261.02 195.069 265.196 196.925 270.068C198.665 274.94 199.593 280.044 199.593 285.612C199.593 291.296 198.665 296.632 197.041 301.62C195.301 306.724 192.633 311.132 189.153 314.844C185.673 318.556 181.149 321.572 175.813 323.776C170.477 325.98 164.097 327.024 156.905 327.024H113.289V308.928H122.105V263.804H113.289ZM144.957 307.652H156.905C160.617 307.652 163.633 307.072 166.185 305.796C168.737 304.52 170.709 302.78 172.333 300.692C173.957 298.604 175.117 296.284 175.813 293.616C176.509 290.948 176.857 288.164 176.857 285.38C176.857 282.596 176.393 280.044 175.697 277.492C174.885 275.056 173.725 272.852 172.101 270.996C170.477 269.14 168.389 267.748 165.837 266.588C163.285 265.428 160.385 264.848 156.905 264.848H144.957V307.652ZM278.385 272.968H258.549L258.201 263.572C256.577 263.108 254.953 262.876 253.213 262.644C251.473 262.412 249.733 262.296 247.877 262.296C246.717 262.296 245.557 262.412 244.281 262.644C242.889 262.876 241.729 263.224 240.569 263.688C239.409 264.268 238.481 264.964 237.785 265.776C236.973 266.704 236.625 267.748 236.625 269.14C236.625 271.924 237.785 273.78 240.337 274.824C242.889 275.868 246.137 276.564 250.313 276.912C254.257 277.376 258.201 278.072 262.145 279C266.089 279.928 269.685 281.436 272.817 283.292C275.949 285.264 278.501 287.816 280.473 290.948C282.445 294.08 283.489 298.024 283.489 302.78C283.489 307.42 282.445 311.364 280.473 314.612C278.385 317.976 275.717 320.76 272.469 322.848C269.105 325.052 265.277 326.676 260.985 327.72C256.577 328.764 252.169 329.228 247.645 329.228C240.917 329.344 234.885 328.532 229.433 326.908C223.981 325.284 218.761 322.384 213.657 317.976V297.676H233.493L233.841 307.072C236.277 308 238.713 308.696 241.033 309.044C243.353 309.508 245.673 309.624 247.761 309.624C251.589 309.624 254.721 309.044 257.041 307.768C259.361 306.492 260.637 304.636 260.637 302.316C260.637 300.344 259.477 298.836 257.157 297.676C254.837 296.632 251.357 295.82 246.949 295.356C242.773 295.008 238.713 294.428 234.769 293.5C230.825 292.572 227.229 291.18 224.097 289.208C220.965 287.352 218.413 284.8 216.557 281.552C214.585 278.304 213.657 274.244 213.657 269.14C213.657 264.732 214.701 260.904 216.789 257.656C218.877 254.408 221.545 251.74 224.909 249.652C228.157 247.564 231.869 246.056 235.929 245.128C239.873 244.2 243.933 243.62 247.877 243.62C253.677 243.62 259.129 244.316 264.001 245.708C268.873 247.1 273.745 249.652 278.385 253.364V272.968ZM352.759 327.024V310.668L359.951 309.972L357.399 302.896H328.631L326.079 310.088L333.735 310.668V327.024H293.019V308.928H302.067L322.251 263.804H313.087V245.824H356.007L384.195 308.928H393.127V327.024H352.759ZM350.555 284.916L342.899 265.312L335.475 284.916H350.555ZM475.237 316.352C470.597 320.876 465.493 324.124 460.157 326.096C454.821 328.068 448.905 329.112 442.409 329.112C435.913 329.112 429.881 328.184 424.429 326.328C418.861 324.472 414.221 321.804 410.277 318.092C406.333 314.38 403.201 309.972 400.997 304.636C398.677 299.3 397.633 293.268 397.633 286.424C397.517 281.32 398.329 276.1 400.185 270.996C402.041 265.892 404.825 261.368 408.537 257.308C412.249 253.248 417.005 250 422.689 247.448C428.257 245.012 434.985 243.736 442.641 243.736C447.745 243.736 452.849 244.664 457.953 246.288C462.941 248.028 467.349 250.696 471.061 254.408V277.84H451.573L450.993 264.848C449.485 264.384 448.093 264.036 446.701 263.804C445.309 263.688 443.917 263.572 442.641 263.572C439.045 263.572 435.913 264.152 433.129 265.312C430.345 266.472 427.909 268.096 426.053 270.184C424.197 272.272 422.689 274.592 421.761 277.376C420.833 280.16 420.369 283.176 420.369 286.424C420.369 289.904 420.833 292.92 421.877 295.704C422.921 298.488 424.429 300.924 426.401 302.896C428.257 304.984 430.577 306.492 433.361 307.652C436.029 308.812 439.045 309.276 442.409 309.276C445.773 309.276 449.137 308.696 452.617 307.42C455.981 306.144 458.997 304.056 461.781 301.272L475.237 316.352Z" fill="white"/>
</g>
<defs>
<clipPath id="clip0_19_10">
<rect width="566.76" height="564.317" fill="white" transform="translate(0.703979 0.0986328)"/>
</clipPath>
</defs>
</svg>
