<svg width="619" height="168" viewBox="0 0 619 168" fill="none" xmlns="http://www.w3.org/2000/svg">
<path d="M123.661 95.583C123.378 95.883 121.423 94.188 116.423 89.624C113.908 87.364 110.591 84.437 105.97 81.146C105.681 80.944 105.389 80.738 105.092 80.53C105.086 80.527 105.09 80.525 105.082 80.533C104.531 81.034 103.965 81.549 103.383 82.078C102.208 83.146 100.972 84.269 99.673 85.449C97.074 87.809 94.223 90.397 91.101 93.232C77.003 106.032 68.767 113.524 63.988 117.744C59.209 121.963 57.887 122.91 57.619 122.619C57.351 122.328 58.378 121.167 63.001 116.875C67.624 112.583 75.842 105.16 89.954 92.347C93.256 89.347 96.244 86.632 98.947 84.177C100.298 82.95 101.577 81.787 102.788 80.687C103.539 80.007 104.268 79.346 104.977 78.704C105.452 79.038 105.919 79.366 106.38 79.69C106.687 79.91 106.99 80.126 107.288 80.339C112.048 83.773 115.34 86.799 117.749 89.072C122.529 93.669 123.923 95.305 123.661 95.583Z" fill="white"/>
<path d="M147.872 111.524C147.576 111.797 146.478 110.857 143.802 108.178C141.113 105.513 136.865 101.079 129.96 94.687C126.438 91.432 123.5 88.873 121.108 86.816C120.496 86.295 119.966 85.815 119.424 85.424C118.879 85.019 118.344 84.652 117.84 84.314C117.33 83.981 116.855 83.67 116.412 83.38C116.188 83.238 115.973 83.1 115.765 82.968C115.67 82.908 115.576 82.849 115.484 82.791C115.448 82.767 115.432 82.753 115.432 82.753C115.397 82.763 115.466 82.735 115.343 82.778C115.218 82.822 115.096 82.866 114.977 82.908C114.739 82.994 114.514 83.076 114.299 83.153C113.872 83.312 113.49 83.454 113.149 83.58C112.47 83.833 111.954 84.024 111.568 84.168C110.795 84.441 110.498 84.464 110.379 84.275C110.265 84.096 110.411 83.808 111.126 83.326C111.483 83.087 111.981 82.805 112.658 82.48C112.996 82.317 113.379 82.145 113.812 81.96C114.029 81.87 114.258 81.775 114.499 81.676C114.62 81.628 114.745 81.579 114.873 81.528C115.101 81.443 115.335 81.356 115.575 81.267C116.057 81.556 116.577 81.867 117.137 82.203C117.59 82.491 118.076 82.799 118.597 83.129C119.114 83.469 119.662 83.838 120.24 84.261C120.528 84.471 120.827 84.704 121.125 84.954C121.407 85.195 121.697 85.443 121.996 85.698C124.385 87.744 127.31 90.299 130.821 93.542C138.155 100.33 142.46 104.803 144.977 107.517C147.479 110.249 148.158 111.26 147.872 111.524Z" fill="white"/>
<path d="M192.734 94.249C192.382 94.529 191.267 93.124 187.634 90.061C185.847 88.497 183.276 86.626 180.511 83.538C180.169 83.151 179.836 82.735 179.494 82.309C179.398 82.181 179.302 82.051 179.203 81.92L179.201 81.921C178.299 82.497 177.35 83.103 176.353 83.74C174.257 85.067 171.958 86.523 169.44 88.118C158.071 95.305 151.562 99.701 147.808 102.178C144.058 104.659 143.037 105.19 142.802 104.859C142.578 104.545 143.353 103.752 146.987 101.157C150.622 98.566 157.138 94.209 168.523 87.01C171.184 85.323 173.593 83.796 175.771 82.415C177.008 81.625 178.179 80.876 179.287 80.168L179.469 80.051C179.498 80.036 179.531 80.003 179.558 80.002L179.622 80.088L179.878 80.432L180.366 81.089C180.53 81.307 180.685 81.527 180.858 81.729C181.193 82.141 181.519 82.54 181.861 82.909C183.2 84.405 184.534 85.593 185.718 86.634C186.905 87.673 187.947 88.563 188.816 89.36C192.301 92.569 193.011 94.046 192.734 94.249Z" fill="white"/>
<path d="M281.233 39.439C281.306 39.698 278.704 41.475 271.518 46.018C264.334 50.534 252.687 57.855 234.834 69.077C226.027 74.614 218.786 79.167 212.846 82.902C210.468 80.874 208.328 79.049 206.404 77.408C203.088 80.042 200.424 82.157 198.294 83.85C196.036 85.627 194.332 86.945 193.053 87.9C190.496 89.811 189.643 90.274 189.473 90.061C189.302 89.848 189.916 89.142 192.329 87.078C193.535 86.046 195.191 84.674 197.422 82.854C199.781 80.947 202.739 78.556 206.43 75.572C207.991 76.899 209.694 78.345 212.974 81.133C217.345 78.385 224.693 73.766 233.803 68.04C252.679 56.165 264.397 48.8 271.467 44.513C278.538 40.231 280.948 39.002 281.233 39.439Z" fill="white"/>
<path d="M335.49 86.834C334.953 87.424 328.827 81.667 308.645 63.019C307.214 61.741 305.81 60.706 304.276 60.002C303.505 59.628 302.702 59.265 301.951 58.789C301.205 58.318 300.554 57.788 299.954 57.269C297.624 55.195 295.565 53.362 293.748 51.744C290.123 48.507 287.47 46.12 285.559 44.359C281.736 40.838 280.878 39.823 281.141 39.528C281.404 39.232 282.456 39.942 286.343 43.308C288.271 45.009 290.927 47.352 294.557 50.555C296.364 52.163 298.413 53.986 300.735 56.053C301.311 56.556 301.905 57.049 302.549 57.474C303.183 57.898 303.914 58.244 304.708 58.625C306.341 59.355 307.971 60.505 309.431 61.811C330.83 81.57 336.015 86.254 335.49 86.834Z" fill="white"/>
<path d="M414.634 36.386C414.454 36.583 413.211 35.683 410.395 33.264C408.987 32.054 407.185 30.465 404.925 28.443C402.781 26.509 400.193 24.174 397.101 21.384C395.464 22.409 393.698 23.515 391.797 24.706C389.749 26.018 387.55 27.416 385.23 28.963C380.578 32.039 375.36 35.59 369.614 39.781C359.63 47.072 351.998 53.223 346.078 58.206C340.149 63.182 335.931 66.993 332.841 69.746C329.762 72.512 327.836 74.251 326.636 75.251C325.432 76.247 324.95 76.504 324.813 76.362C324.676 76.219 324.941 75.772 325.98 74.647C327.016 73.519 328.823 71.71 331.826 68.906C334.835 66.111 339.018 62.294 344.933 57.309C350.84 52.316 358.485 46.154 368.504 38.823C374.39 34.527 379.697 30.91 384.404 27.794C386.753 26.228 388.971 24.817 391.034 23.5C393.274 22.105 395.348 20.814 397.266 19.62C400.799 22.863 403.703 25.529 406.072 27.704C408.326 29.79 410.059 31.416 411.358 32.668C413.954 35.175 414.817 36.185 414.634 36.386Z" fill="white"/>
<path d="M485.168 96.661C484.885 96.937 482.639 94.899 477.001 89.235C471.363 83.571 462.332 74.279 448.478 60.048C440.661 52.015 434.467 45.65 429.574 40.62C427.133 38.1 425.016 35.914 423.183 34.022C422.27 33.074 421.428 32.2 420.652 31.393C419.894 30.604 419.172 29.971 418.445 29.654C416.994 29.023 415.663 29.804 414.644 30.406C413.61 31.034 412.755 31.548 412.026 31.778C411.305 32.028 410.76 32.016 410.448 31.953C410.13 31.874 410.02 31.786 410.03 31.688C410.049 31.438 410.509 31.522 411.641 30.973C412.214 30.699 412.927 30.199 413.94 29.495C414.455 29.153 415.052 28.753 415.851 28.442C416.627 28.127 417.736 27.988 418.772 28.381C419.812 28.754 420.674 29.502 421.481 30.3C422.261 31.094 423.108 31.956 424.028 32.892C425.855 34.765 427.969 36.93 430.41 39.432C435.285 44.442 441.469 50.797 449.291 58.836C463.94 73.884 473.051 83.202 478.43 88.827C483.807 94.453 485.452 96.385 485.168 96.661Z" fill="white"/>
<path d="M522.886 116.464C522.597 116.739 520.951 115.268 516.86 111.142C512.761 107.024 506.231 100.236 496.003 90.045C490.227 84.297 485.604 79.791 481.946 76.236C481.031 75.348 480.176 74.519 479.378 73.745C478.584 72.96 477.877 72.292 477.175 72.045C476.498 71.791 475.863 72 475.202 72.375C474.558 72.753 473.908 73.197 473.339 73.552C468.737 76.488 467.481 77.093 467.263 76.763C467.045 76.433 468.053 75.564 472.519 72.528C473.089 72.146 473.662 71.74 474.39 71.278C474.761 71.053 475.185 70.821 475.707 70.672C476.224 70.516 476.864 70.501 477.439 70.67C478.608 71.013 479.44 71.848 480.228 72.601C481.025 73.369 481.879 74.192 482.795 75.074C486.451 78.611 491.064 83.122 496.851 88.878C507.676 99.664 514.272 106.481 518.154 110.604C522.03 114.735 523.17 116.194 522.886 116.464Z" fill="white"/>
<path d="M593.68 166.363C593.384 166.625 590.99 164.2 584.974 157.528C578.958 150.855 569.32 139.935 554.534 123.205C550.362 118.484 546.622 114.254 543.273 110.465C541.599 108.57 540.022 106.785 538.538 105.105C538.167 104.685 537.802 104.271 537.442 103.864L536.907 103.258L536.774 103.108L536.687 103.029L536.398 102.772C535.622 102.096 534.842 101.466 534.067 100.933C532.608 99.847 530.861 99.624 529.218 99.596C527.571 99.586 525.972 99.771 524.495 99.869C521.541 100.087 519.046 100.272 516.942 100.427C508.526 101.015 506.383 100.999 506.351 100.605C506.319 100.211 508.34 99.878 516.654 99.139C518.733 98.962 521.205 98.751 524.135 98.501C525.603 98.394 527.166 98.208 528.942 98.182C530.684 98.18 532.762 98.351 534.602 99.578C535.474 100.144 536.281 100.792 537.097 101.487L537.707 102.024C537.896 102.199 537.931 102.267 538.034 102.375L538.302 102.678C538.661 103.084 539.025 103.496 539.395 103.916C540.876 105.592 542.449 107.374 544.121 109.266C547.465 113.051 551.202 117.281 555.376 122.006C571.01 139.695 580.734 150.654 586.475 157.255C592.218 163.856 593.977 166.101 593.68 166.363Z" fill="white"/>
<path d="M430.418 138.136C430.243 138.486 427.614 137.404 420.876 134.113C417.508 132.466 413.116 130.256 407.544 127.288C401.978 124.314 395.226 120.575 387.356 115.537C382.923 112.681 379.058 109.955 375.662 107.423C372.295 104.868 369.38 102.466 366.887 100.361C364.391 98.279 362.029 96.783 359.768 96.194C357.518 95.609 355.461 95.819 353.742 95.989C352.014 96.181 350.581 96.378 349.403 96.442C348.226 96.517 347.312 96.463 346.635 96.389C345.276 96.198 344.868 95.904 344.904 95.735C344.946 95.516 345.377 95.521 346.631 95.496C347.261 95.466 348.095 95.445 349.204 95.307C350.313 95.185 351.688 94.949 353.433 94.71C355.163 94.496 357.342 94.212 359.906 94.797C362.466 95.384 365.047 96.993 367.593 99.096C370.136 101.216 372.948 103.571 376.301 106.11C379.657 108.627 383.485 111.341 387.888 114.187C396.153 119.485 403.143 123.314 408.8 126.343C414.464 129.362 418.812 131.57 422.052 133.244C428.539 136.581 430.597 137.779 430.418 138.136Z" fill="white"/>
<path d="M466.943 88.125C466.713 88.482 466.091 88.175 464.446 87.616C463.62 87.351 462.517 87.042 461.067 86.945C460.341 86.872 459.58 87.001 458.453 86.894C457.906 86.839 457.241 86.595 456.757 86.225C456.255 85.861 455.877 85.465 455.461 85.084C447.962 78.058 446.663 76.898 447.204 76.32C447.745 75.742 448.881 76.965 456.386 83.996C456.83 84.406 457.239 84.819 457.601 85.073C457.97 85.337 458.286 85.438 458.706 85.484C459.513 85.551 460.516 85.438 461.336 85.536C462.997 85.676 464.212 86.082 465.071 86.456C466.784 87.249 467.147 87.822 466.943 88.125Z" fill="white"/>
<path d="M344.248 110.342C343.722 110.933 337.651 105.48 317.638 87.684C316.23 86.427 314.91 85.27 313.522 84.453C312.141 83.619 310.718 83.193 309.291 83.133C307.869 83.048 306.488 83.23 305.175 83.435C303.861 83.641 302.607 83.871 301.397 84.001C300.189 84.134 299.023 84.166 297.932 84.04C296.84 83.917 295.847 83.641 294.983 83.304C293.252 82.622 291.943 81.826 290.851 81.188C286.558 78.552 285.338 78.403 285.442 77.938C285.488 77.757 285.833 77.674 286.774 77.905C287.714 78.128 289.22 78.767 291.401 79.997C293.594 81.124 296.491 83.218 301.065 82.603C302.202 82.486 303.425 82.265 304.761 82.052C306.097 81.849 307.555 81.62 309.163 81.694C309.964 81.709 310.796 81.859 311.634 82.072C312.467 82.313 313.286 82.666 314.062 83.114C315.623 84.005 317.02 85.224 318.432 86.481C339.594 105.3 344.774 109.751 344.248 110.342Z" fill="white"/>
<path d="M208.666 108.328C208.163 108.921 207.27 108.176 204.471 105.598C201.343 102.655 200.849 102.115 201.4 101.573C201.976 101.005 202.329 101.622 205.421 104.533C208.347 107.225 209.189 107.713 208.666 108.328Z" fill="white"/>
<path d="M220.588 91.724C219.894 92.148 219.725 91.63 218.615 90.297C217.303 88.845 216.945 88.748 217.472 88.117C217.954 87.532 218.241 87.76 219.685 89.354C220.972 90.904 221.242 91.33 220.588 91.724Z" fill="white"/>
<path d="M133.588 110.105C133.704 110.888 132.161 111.075 127.119 111.822C121.428 112.665 120.469 112.848 120.354 112.066C120.238 111.283 121.177 111.261 126.872 110.417C132.203 109.626 133.472 109.322 133.588 110.105Z" fill="white"/>
<path d="M166.549 140.51C166.003 141.093 162.19 137.413 149.531 125.544C142.368 118.876 137.934 115.286 135.42 113.201C132.899 111.124 132.322 110.511 132.564 110.182C132.791 109.873 133.554 110.181 136.17 112.129C138.777 114.085 143.213 117.72 150.404 124.409C163.805 136.974 167.084 139.939 166.549 140.51Z" fill="white"/>
<path d="M192.647 150.199C192.402 150.503 191.179 149.772 188.257 147.464C186.796 146.311 184.917 144.758 182.511 142.766C180.1 140.781 177.178 138.334 173.527 135.534C169.413 132.364 165.999 130.078 163.248 128.369C161.867 127.486 160.721 126.859 159.67 126.779C158.613 126.685 157.685 126.947 156.933 127.246C155.423 127.873 154.524 128.508 153.931 128.783C153.342 129.079 153.08 129.101 152.96 128.941C152.842 128.784 152.922 128.541 153.388 128.077C153.869 127.632 154.681 126.877 156.345 126.077C157.177 125.705 158.28 125.3 159.678 125.387C161.106 125.442 162.536 126.232 163.887 127.087C166.677 128.803 170.131 131.121 174.283 134.316C178.176 137.3 181.218 139.843 183.676 141.88C186.127 143.925 187.974 145.486 189.343 146.667C192.083 149.028 192.899 149.887 192.647 150.199Z" fill="white"/>
<path d="M464.631 158.873C464.37 159.184 462.768 158.051 458.709 154.863C454.631 151.702 448.124 146.434 437.688 138.978C431.796 134.775 427.025 131.591 423.238 129.104C421.338 127.87 419.69 126.8 418.264 125.874C417.551 125.405 416.942 125.042 416.407 124.958C415.895 124.864 415.375 125.034 414.865 125.27C410.617 127.489 409.427 127.964 409.246 127.603C409.069 127.256 409.976 126.536 414.193 124.144C414.752 123.863 415.504 123.509 416.456 123.597C417.388 123.689 418.175 124.174 418.888 124.621C420.315 125.536 421.965 126.594 423.871 127.816C427.662 130.293 432.439 133.485 438.356 137.704C449.424 145.616 456.003 150.923 459.884 154.137C463.75 157.373 464.878 158.579 464.631 158.873Z" fill="white"/>
<path d="M509.817 165.955C509.496 166.678 502.574 163.583 479.805 153.551C473.381 150.718 468.291 148.473 464.27 146.699C462.251 145.836 460.527 144.941 459.062 144.548C457.573 144.121 456.38 144.334 455.39 144.786C454.399 145.229 453.605 145.768 452.923 146.15C452.245 146.542 451.681 146.807 451.237 146.952C450.342 147.241 449.99 147.137 449.946 146.96C449.892 146.755 450.132 146.585 450.83 146.159C451.18 145.944 451.64 145.647 452.253 145.217C452.873 144.797 453.625 144.215 454.741 143.645C455.3 143.368 455.972 143.109 456.761 143C457.548 142.886 458.406 142.96 459.266 143.162C461.006 143.592 462.683 144.478 464.694 145.327C468.7 147.094 473.782 149.335 480.21 152.17C504.285 162.779 510.138 165.232 509.817 165.955Z" fill="white"/>
<path d="M362.495 129.51C362.248 129.814 361.785 129.691 360.845 129.009C359.908 128.324 358.485 127.092 356.436 125.069C354.134 122.773 352.892 121.329 352.247 120.451C351.608 119.567 351.583 119.232 351.886 118.982C352.193 118.729 352.484 118.824 353.224 119.583C353.97 120.335 355.15 121.769 357.41 124.027C359.538 126.128 360.972 127.307 361.769 128.08C362.567 128.847 362.746 129.201 362.495 129.51Z" fill="white"/>
<path d="M527.978 132.085C527.672 132.344 527.404 132.299 526.968 131.976C526.53 131.658 525.924 131.034 524.812 130.304C523.545 129.499 522.705 129.225 522.266 128.968C521.82 128.721 521.743 128.511 521.854 128.128C521.963 127.751 522.139 127.618 522.687 127.73C523.227 127.854 524.155 128.199 525.57 129.094C526.881 129.954 527.588 130.644 527.943 131.105C528.294 131.573 528.277 131.832 527.978 132.085Z" fill="white"/>
<path d="M309.885 72.159C309.669 72.495 309.062 72.313 307.648 71.56C306.227 70.82 303.999 69.486 300.395 67.809C299.881 67.578 299.393 67.358 298.931 67.15C298.453 66.946 297.848 66.6 297.493 66.083C297.149 65.596 297.002 65.178 296.827 64.843C296.656 64.494 296.487 64.171 296.32 63.872C295.654 62.676 295.066 61.857 294.647 61.254C293.792 60.06 293.629 59.685 293.923 59.403C294.198 59.137 294.615 59.256 295.649 60.415C296.157 61 296.811 61.852 297.535 63.123C297.717 63.44 297.899 63.785 298.084 64.158C298.276 64.536 298.438 64.939 298.623 65.205C298.794 65.463 299.025 65.621 299.467 65.825C299.931 66.034 300.42 66.255 300.937 66.488C304.82 68.293 307.118 69.646 308.444 70.514C309.763 71.399 310.097 71.83 309.885 72.159Z" fill="white"/>
<path d="M419.886 42.383C419.358 42.972 418.979 42.578 417.646 41.384C416.141 40.036 415.859 39.838 416.387 39.249C416.915 38.66 417.082 38.964 418.587 40.313C419.997 41.575 420.414 41.794 419.886 42.383Z" fill="white"/>
<path d="M495.56 105.925C495.11 106.576 494.311 105.974 491.613 104.11C488.568 102.006 488.028 101.683 488.478 101.032C488.928 100.381 489.356 100.817 492.403 102.922C495.256 104.894 496.009 105.274 495.56 105.925Z" fill="white"/>
<path d="M537.041 138.394C536.308 138.634 535.878 137.425 534.792 133.372C533.633 128.781 533.532 127.977 534.283 127.83C535.085 127.67 535.023 128.454 536.164 132.981C537.297 137.202 537.815 138.142 537.041 138.394Z" fill="white"/>
<path d="M557.72 146.307C557.62 146.683 556.928 146.709 555.221 146.3C553.518 145.882 550.791 145.053 546.742 143.439C542.183 141.589 539.627 140.249 538.206 139.42C536.79 138.576 536.523 138.202 536.712 137.859C536.905 137.509 537.327 137.56 538.78 138.245C540.239 138.915 542.72 140.262 547.213 142.091C551.431 143.772 554.147 144.54 555.738 145.089C557.332 145.628 557.823 145.919 557.72 146.307Z" fill="white"/>
<path d="M236.164 165.485C236.046 165.827 234.33 165.465 230.237 163.588C226.158 161.694 219.73 158.282 210.113 152.681C204.684 149.521 200.421 146.955 197.064 144.909C195.391 143.876 193.941 142.98 192.685 142.204C192.373 142.007 192.072 141.818 191.784 141.636L191.57 141.5C191.499 141.455 191.549 141.483 191.521 141.47C191.373 141.429 191.227 141.39 191.085 141.351C190.479 141.195 190.101 141.152 189.644 141.233C188.757 141.404 187.875 141.732 187.225 141.89C186.558 142.073 186.044 142.196 185.652 142.27C184.867 142.417 184.569 142.362 184.507 142.174C184.445 141.986 184.642 141.772 185.344 141.434C185.695 141.265 186.173 141.064 186.809 140.82C187.128 140.701 187.485 140.569 187.884 140.42C188.28 140.281 188.726 140.098 189.308 139.968C189.599 139.905 189.914 139.861 190.269 139.864C190.65 139.875 190.956 139.937 191.286 140.005C191.446 140.043 191.61 140.083 191.778 140.123L191.908 140.158C191.983 140.185 192.069 140.191 192.137 140.238L192.411 140.406C192.699 140.582 192.999 140.765 193.311 140.955C194.561 141.716 196.006 142.597 197.676 143.613C201.019 145.641 205.263 148.208 210.684 151.364C220.834 157.273 227.293 160.639 231.161 162.587C233.104 163.54 234.382 164.189 235.173 164.6C235.957 165.033 236.234 165.3 236.164 165.485Z" fill="white"/>
<path d="M102.31 115.193C102.588 115.934 102.162 116.05 100.811 116.556C99.287 117.128 99.043 117.263 98.765 116.522C98.487 115.781 98.775 115.797 100.3 115.225C101.728 114.69 102.032 114.452 102.31 115.193Z" fill="white"/>
<path d="M277.342 72.678C277.441 72.299 277.609 72.139 277.959 72.168C278.304 72.201 278.832 72.412 279.515 72.911C280.276 73.488 280.618 73.955 280.734 74.258C280.845 74.57 280.718 74.735 280.383 74.94C280.044 75.147 279.87 75.179 279.675 75.024C279.476 74.875 279.255 74.508 278.673 74.063C278.119 73.66 277.708 73.544 277.497 73.392C277.284 73.243 277.241 73.064 277.342 72.678Z" fill="white"/>
<path d="M356.984 49.283C357.333 49.477 357.158 50.155 356.414 51.803C356.039 52.627 355.528 53.698 354.828 55.066C354.122 56.428 353.24 58.104 351.941 60.01C348.963 64.281 346.546 66.231 345.187 67.287C343.782 68.313 343.299 68.387 343.074 68.075C342.836 67.746 343.088 67.396 344.327 66.302C345.522 65.18 347.855 63.359 350.724 59.261C352.042 57.336 352.915 55.634 353.636 54.266C354.347 52.892 354.885 51.837 355.324 51.064C356.2 49.516 356.642 49.093 356.984 49.283Z" fill="white"/>
<path d="M184.232 99.388C183.749 100.015 181.941 98.57 175.925 93.934C175.674 93.741 175.431 93.553 175.196 93.373L174.983 93.209C173.838 94.193 172.928 94.974 172.208 95.593C171.366 96.304 170.736 96.817 170.255 97.169C169.295 97.873 168.936 97.935 168.696 97.658C168.455 97.38 168.569 97.054 169.411 96.222C169.832 95.806 170.434 95.263 171.265 94.536C172.214 93.715 173.415 92.677 174.93 91.366C175.493 91.8 176.101 92.27 176.749 92.77C183.111 97.671 184.715 98.761 184.232 99.388Z" fill="white"/>
<path d="M408.725 90.792C408.493 91.112 407.397 90.55 404.743 88.735C404.084 88.275 403.323 87.743 402.449 87.133C402.008 86.822 401.545 86.462 401.282 86.447C401.048 86.394 400.613 86.62 400.065 87.039C397.873 88.613 395.203 90.543 392.012 92.934C384.816 98.343 380.752 101.691 378.355 103.519C375.966 105.358 375.266 105.71 375.01 105.404C374.759 105.103 375.207 104.498 377.477 102.549C379.756 100.612 383.835 97.3 391.058 91.867C394.445 89.329 397.213 87.317 399.472 85.711C399.772 85.503 400.107 85.278 400.54 85.136C400.961 84.982 401.536 84.998 401.933 85.166C402.734 85.52 403.068 85.895 403.524 86.194C404.377 86.829 405.11 87.376 405.738 87.844C408.232 89.737 408.957 90.472 408.725 90.792Z" fill="white"/>
<path d="M429.508 104.651C429.009 105.305 428.046 104.367 424.373 102.002C422.284 100.692 421.005 100.026 420.321 99.555C419.634 99.089 419.53 98.829 419.712 98.476C419.892 98.125 420.151 98.065 420.921 98.394C421.687 98.729 422.97 99.44 425.106 100.778C429.07 103.336 429.968 104.054 429.508 104.651Z" fill="white"/>
<path d="M272.795 99.682C272.357 99.023 273.665 98.202 277.885 95.394C282.647 92.225 283.432 91.654 283.87 92.313C284.308 92.972 283.473 93.389 278.707 96.56C274.245 99.529 273.233 100.341 272.795 99.682Z" fill="white"/>
<path d="M416.117 166.128C415.84 166.41 414.471 165.326 411.155 162.168C407.815 159.04 402.632 153.715 394.218 146.101C391.832 143.968 389.65 142.111 387.647 140.519C386.641 139.742 385.687 138.956 384.788 138.382C383.883 137.79 383.017 137.489 382.075 137.352C381.148 137.21 380.2 137.173 379.327 137.101C378.454 137.035 377.643 136.973 376.89 136.916C375.386 136.792 374.114 136.686 373.043 136.597C368.76 136.209 367.687 135.946 367.715 135.551C367.743 135.156 368.792 135.06 373.041 135.287C374.103 135.351 375.365 135.427 376.861 135.518C378.376 135.635 380.043 135.688 382.131 135.918C383.169 136.044 384.382 136.418 385.406 137.081C386.448 137.729 387.367 138.497 388.398 139.291C390.431 140.901 392.634 142.774 395.039 144.921C399.538 148.946 403.043 152.344 405.87 155.078C408.688 157.821 410.798 159.929 412.36 161.521C415.48 164.709 416.395 165.845 416.117 166.128Z" fill="white"/>
<path d="M433.416 158.464C433.276 158.833 432.437 158.719 430.366 158.021C428.305 157.296 424.964 156.101 420.02 153.755C418.629 153.083 417.402 152.434 416.32 151.818C415.244 151.196 414.339 150.661 413.507 150.279C411.853 149.501 410.538 149.276 409.578 149.142C407.661 148.937 407.155 149.016 407.069 148.586C407.031 148.395 407.126 148.225 407.509 148.071C407.89 147.924 408.566 147.788 409.64 147.835C410.7 147.892 412.207 148.116 414.034 148.951C414.945 149.361 415.911 149.927 416.959 150.536C418.009 151.137 419.202 151.774 420.566 152.434C425.698 154.868 429.071 156.018 431.012 156.868C432.969 157.692 433.557 158.093 433.416 158.464Z" fill="white"/>
<path d="M323.548 14.098C323.503 13.922 323.757 13.673 324.481 13.509C325.189 13.365 326.426 13.276 328.004 13.926C328.786 14.248 329.648 14.75 330.468 15.534C331.278 16.315 332.054 17.412 332.437 18.833C332.823 20.246 332.753 21.933 332.113 23.579C331.468 25.205 330.232 26.865 328.281 27.831C327.749 28.107 327.131 28.305 326.571 28.392C325.982 28.482 325.516 28.532 324.911 28.517C323.758 28.441 322.813 28.094 321.949 27.667C320.238 26.796 319.023 25.402 318.467 23.974C317.875 22.548 317.903 21.179 318.012 20.111C318.132 19.023 318.401 18.108 318.741 17.384C319.429 15.922 320.298 15.267 320.811 14.987C321.346 14.706 321.595 14.758 321.691 14.918C321.799 15.094 321.708 15.29 321.38 15.672C321.066 16.062 320.468 16.634 319.963 17.849C319.713 18.453 319.501 19.222 319.404 20.173C319.313 21.129 319.293 22.222 319.749 23.349C320.178 24.465 321.083 25.598 322.506 26.344C323.202 26.721 324.038 27.005 324.872 27.089C325.22 27.113 325.786 27.068 326.223 27.004C326.694 26.929 327.115 26.824 327.553 26.597C329.218 25.819 330.3 24.346 330.825 22.934C331.369 21.502 331.335 20.087 330.991 18.963C330.633 17.832 329.969 16.963 329.282 16.335C328.594 15.701 327.88 15.293 327.245 15.025C325.962 14.497 325.021 14.455 324.443 14.405C323.863 14.364 323.596 14.3 323.548 14.098Z" fill="white"/>
<path d="M312.618 14.121C312.36 14.46 312.052 14.051 310.622 13.373C309.804 13.017 309.29 12.909 309.011 12.796C308.729 12.688 308.669 12.585 308.705 12.389C308.74 12.196 308.831 12.123 309.15 12.158C309.466 12.199 310.016 12.334 310.9 12.717C312.529 13.493 312.843 13.843 312.618 14.121Z" fill="white"/>
<path d="M315.272 15.026C315.317 15.403 315.13 15.465 314.635 15.308C314.098 15.075 314.051 14.933 314.324 14.678C314.615 14.391 314.575 14.503 314.877 14.637C315.174 14.728 315.234 14.62 315.272 15.026Z" fill="white"/>
<path d="M319.512 17.349C319.295 17.679 318.982 17.472 317.916 16.844C316.714 16.135 316.502 16.033 316.686 15.683C316.87 15.333 317.043 15.501 318.271 16.225C319.42 16.902 319.729 17.018 319.512 17.349Z" fill="white"/>
<path d="M318.52 20.027C318.61 20.391 317.254 20.783 312.722 21.657C307.593 22.574 306.703 22.606 306.657 22.241C306.602 21.822 307.456 21.872 312.557 20.963C317.318 20.041 318.421 19.619 318.52 20.027Z" fill="white"/>
<path d="M312.512 28.887C312.724 29.221 312.323 29.42 311.043 30.129C309.598 30.928 309.361 31.082 309.191 30.725C309.021 30.368 309.274 30.293 310.688 29.511C312.012 28.777 312.3 28.553 312.512 28.887Z" fill="white"/>
<path d="M316.102 27.576C316.279 27.93 316.159 27.967 315.795 28.149C315.384 28.355 315.323 28.408 315.147 28.054C314.97 27.7 315.062 27.719 315.474 27.513C315.858 27.321 315.925 27.223 316.102 27.576Z" fill="white"/>
<path d="M317.951 39.686C317.598 39.507 318.243 38.188 320.299 33.828C322.62 28.906 322.995 28.065 323.357 28.223C323.72 28.382 323.289 29.159 320.96 34.099C318.779 38.723 318.304 39.865 317.951 39.686Z" fill="white"/>
<path d="M329.358 30.583C328.947 30.667 328.989 30.313 328.522 29.332C327.923 28.264 327.671 28.197 327.986 27.908C328.245 27.657 328.471 27.79 329.153 28.999C329.708 30.173 329.718 30.518 329.358 30.583Z" fill="white"/>
<path d="M331.649 34.043C331.327 34.274 331.263 34.149 330.998 33.779C330.699 33.362 330.631 33.303 330.953 33.072C331.274 32.841 331.276 32.943 331.576 33.36C331.856 33.751 331.97 33.812 331.649 34.043Z" fill="white"/>
<path d="M334.326 38.676C333.984 38.874 333.831 38.61 333.273 37.771C332.643 36.824 332.521 36.677 332.836 36.438C333.151 36.199 333.212 36.393 333.862 37.37C334.471 38.284 334.668 38.477 334.326 38.676Z" fill="white"/>
<path d="M343.105 30.715C342.832 31.058 341.694 29.91 337.321 27.012C334.832 25.41 333.299 24.601 332.451 24.088C331.598 23.582 331.415 23.388 331.506 23.21C331.596 23.036 331.851 23.067 332.741 23.502C333.626 23.945 335.157 24.775 337.675 26.392C340.023 27.92 341.414 28.967 342.219 29.622C343.021 30.281 343.227 30.562 343.105 30.715Z" fill="white"/>
<path d="M335.588 18.925C335.579 19.321 335.122 19.29 333.62 19.257C331.925 19.22 331.637 19.234 331.646 18.839C331.655 18.443 331.928 18.507 333.624 18.544C335.212 18.579 335.596 18.53 335.588 18.925Z" fill="white"/>
<path d="M340.13 19.209C340.13 19.605 339.922 19.584 339.239 19.584C338.468 19.584 338.337 19.604 338.337 19.209C338.337 18.813 338.462 18.871 339.233 18.871C339.956 18.871 340.13 18.814 340.13 19.209Z" fill="white"/>
<path d="M348.506 19.498C348.454 19.906 347.863 19.749 345.88 19.673C343.641 19.642 343.267 19.768 343.237 19.352C343.209 18.979 343.585 18.929 345.884 18.959C348.036 19.045 348.556 19.124 348.506 19.498Z" fill="white"/>
<path d="M331.504 12.989C331.769 13.283 331.507 13.491 330.693 14.225C329.774 15.053 329.632 15.209 329.367 14.915C329.102 14.621 329.29 14.53 330.21 13.701C331.07 12.925 331.239 12.695 331.504 12.989Z" fill="white"/>
<path d="M341.196 3.80199C341.482 4.07499 340.559 4.94699 337.579 7.85299C334.216 11.133 333.659 11.704 333.393 11.411C333.127 11.118 333.708 10.632 337.058 7.36499C340.196 4.30599 340.91 3.52899 341.196 3.80199Z" fill="white"/>
<path d="M322.073 8.35501C322.451 8.24001 322.626 8.78201 323.261 10.544C323.978 12.533 324.118 12.862 323.753 13.014C323.388 13.166 323.323 12.817 322.595 10.799C321.914 8.91101 321.694 8.47101 322.073 8.35501Z" fill="white"/>
<path d="M319.388 0.91899C319.738 0.75599 319.926 1.12699 320.393 2.39499C320.89 3.83699 320.931 4.09699 320.561 4.19299C320.167 4.29699 320.206 4.03999 319.726 2.64499C319.247 1.34999 319.019 1.08899 319.388 0.91899Z" fill="white"/>
<path d="M553.937 166.042C553.937 166.151 552.326 166.245 548.814 166.325C545.302 166.405 539.891 166.471 532.29 166.526V165.626C540.692 165.567 551.781 165.524 565.943 165.584C580.106 165.659 597.334 165.781 618.028 165.746V167.094C561.953 167.072 480.272 167.04 365.286 166.995C209.516 166.867 118.432 166.792 66.29 166.75C40.219 166.691 23.884 166.613 14.066 166.5C9.15698 166.444 5.87797 166.378 3.82597 166.303C1.77397 166.227 0.948975 166.141 0.948975 166.042C0.948975 165.943 1.73798 165.859 3.72598 165.787C5.71497 165.715 8.90398 165.657 13.705 165.609C23.307 165.514 39.358 165.463 65.152 165.443C116.74 165.465 207.298 165.503 363.182 165.568C480.838 165.639 562.501 165.688 618.027 165.721V167.12C596.939 167.126 579.604 166.955 565.497 166.817C551.388 166.723 540.498 166.651 532.289 166.596V165.556C540.131 165.607 545.543 165.671 548.994 165.751C552.446 165.831 553.937 165.927 553.937 166.042Z" fill="white"/>
<path d="M53.527 120.388C53.854 120.124 54.275 120.49 55.47 121.267C56.074 121.655 56.9 122.12 58.039 122.673C59.161 123.229 60.651 123.889 62.271 124.983C64.096 126.208 65.394 127.352 66.394 128.265C67.39 129.184 68.08 129.893 68.562 130.427C69.522 131.499 69.641 131.889 69.363 132.168C69.083 132.449 68.72 132.32 67.668 131.38C67.152 130.904 66.442 130.249 65.472 129.354C64.496 128.476 63.253 127.364 61.528 126.202C59.919 125.112 58.47 124.494 57.28 123.889C56.093 123.298 55.198 122.744 54.586 122.243C53.366 121.211 53.237 120.609 53.527 120.388Z" fill="white"/>
<path d="M52.928 121.147C53.498 121.696 48.508 126.821 32.231 143.733C13.859 162.822 10.775 166.085 10.205 165.536C9.63498 164.987 12.694 161.975 31.08 142.872C48.29 124.991 52.358 120.599 52.928 121.147Z" fill="white"/>
<path d="M172.526 146.606C172.236 146.875 171.897 146.48 170.733 145.227C169.42 143.813 169.182 143.587 169.472 143.318C169.762 143.049 169.932 143.317 171.246 144.732C172.477 146.057 172.816 146.337 172.526 146.606Z" fill="white"/>
<path d="M409.847 166.284C409.828 166.271 409.813 166.247 409.83 166.203C409.841 166.156 409.95 166.109 410.04 166.151C410.128 166.189 410.215 166.255 410.258 166.406C410.279 166.478 410.27 166.608 410.179 166.7C410.103 166.778 410.009 166.821 409.898 166.831C409.679 166.842 409.492 166.744 409.339 166.577C409.192 166.401 409.129 166.216 409.042 166.099C408.769 165.828 408.442 165.503 408.054 165.119C406.447 163.499 404.114 160.607 400.955 155.948C397.394 150.688 395.113 147.789 393.698 146.221C392.282 144.657 391.98 144.199 392.119 144.058C392.258 143.917 392.672 144.232 394.152 145.75C395.632 147.268 397.933 150.212 401.494 155.473C404.834 160.393 407.171 163.223 408.668 164.816C408.853 165.017 409.023 165.201 409.178 165.369C409.255 165.454 409.328 165.535 409.398 165.612C409.508 165.728 409.568 165.85 409.611 165.945C409.697 166.144 409.734 166.251 409.785 166.3C409.844 166.365 409.897 166.378 409.896 166.387L409.9 166.391L409.903 166.392L409.905 166.393H409.906H409.907L409.949 166.449C409.961 166.466 409.969 166.468 409.96 166.464C409.949 166.459 409.927 166.456 409.903 166.458C409.885 166.46 409.904 166.455 409.901 166.449C409.909 166.422 409.895 166.384 409.904 166.371C409.923 166.287 409.922 166.336 409.913 166.315C409.894 166.305 409.867 166.298 409.847 166.284Z" fill="white"/>
<path d="M502.631 165.466C502.637 165.444 502.652 165.426 502.688 165.42C502.72 165.394 502.825 165.502 502.777 165.596C502.722 165.73 502.567 165.897 502.261 165.854C501.621 165.706 500.428 165.364 498.561 164.451C496.691 163.557 494.211 162.045 490.95 159.87C488.552 158.279 486.621 157.094 485.046 156.249C483.462 155.43 482.271 154.885 481.378 154.557C479.603 153.88 479.137 153.727 479.192 153.512C479.232 153.342 479.728 153.32 481.564 153.929C482.484 154.228 483.709 154.757 485.319 155.588C486.92 156.436 488.874 157.639 491.277 159.231C494.668 161.495 497.143 162.98 498.955 163.872C500.755 164.776 501.863 165.161 502.377 165.44C502.442 165.503 502.51 165.435 502.593 165.491C502.632 165.518 502.665 165.505 502.648 165.51C502.653 165.5 502.604 165.561 502.624 165.536C502.626 165.514 502.624 165.489 502.631 165.466Z" fill="white"/>
<path d="M517.536 111.544C517.334 111.884 513.782 109.755 502.093 102.825C500.444 101.847 498.965 100.971 497.641 100.186C497.308 99.988 496.966 99.779 496.664 99.501C496.359 99.229 496.116 98.855 495.991 98.491C495.743 97.751 495.732 97.118 495.637 96.526C495.338 94.144 495.119 92.395 494.96 91.121C494.668 88.57 494.676 87.914 494.872 87.888C495.068 87.862 495.233 88.467 495.601 90.98C495.773 92.238 496.009 93.972 496.333 96.341C496.424 96.927 496.461 97.595 496.636 98.165C496.795 98.743 497.259 99.136 497.921 99.52C499.242 100.304 500.719 101.18 502.368 102.159C514.728 109.486 517.738 111.204 517.536 111.544Z" fill="white"/>
<path d="M582.586 156.766C582.445 156.905 581.334 155.906 578.545 153.127C575.756 150.348 571.289 145.788 564.437 138.804C560.57 134.862 557.507 131.738 555.086 129.27C553.888 128.015 552.807 127.012 551.946 125.965C551.067 124.919 550.737 123.687 550.7 122.741C550.646 121.779 550.74 121.024 550.787 120.42C550.838 119.821 550.876 119.364 550.905 119.02C550.95 118.338 550.975 118.101 551.081 118.088C551.171 118.076 551.29 118.294 551.351 118.99C551.443 119.681 551.279 120.857 551.347 122.615C551.403 123.492 551.643 124.487 552.426 125.448C553.196 126.404 554.317 127.436 555.503 128.675C557.914 131.134 560.973 134.252 564.842 138.197C572.081 145.589 576.572 150.176 579.255 152.915C581.914 155.678 582.728 156.628 582.586 156.766Z" fill="white"/>
<path d="M591.014 166.196C590.736 166.478 589.91 165.589 587.153 162.719C584.041 159.48 583.498 158.945 583.791 158.678C584.084 158.412 584.543 158.973 587.646 162.203C590.551 165.227 591.292 165.915 591.014 166.196Z" fill="white"/>
<path d="M335.022 103.188C334.901 103.352 334.231 102.956 332.532 101.822C330.825 100.702 328.099 98.814 323.68 96.316C321.183 94.911 319.156 93.893 317.542 93.106C317.133 92.905 316.707 92.678 316.396 92.301C316.071 91.914 315.998 91.449 315.952 91.117C315.869 90.446 315.799 89.879 315.74 89.401C315.521 87.49 315.547 86.994 315.743 86.967C315.939 86.94 316.086 87.389 316.382 89.27C316.452 89.741 316.535 90.3 316.634 90.963C316.681 91.289 316.737 91.592 316.912 91.815C317.088 92.051 317.405 92.248 317.795 92.437C319.407 93.216 321.448 94.246 323.962 95.658C328.664 98.316 331.426 100.23 333.053 101.391C334.672 102.567 335.136 103.033 335.022 103.188Z" fill="white"/>
<path d="M384.102 112.901C384.084 113.098 382.905 113.085 379.809 112.848C378.262 112.716 376.235 112.544 373.634 112.322C372.332 112.204 370.886 112.073 369.285 111.927C368.875 111.88 368.401 111.811 367.959 111.538C367.521 111.265 367.23 110.864 366.979 110.492C366.493 109.755 365.984 108.984 365.452 108.179C363.055 104.544 361.156 101.664 359.655 99.389C359.288 98.822 358.933 98.371 358.477 98.154C358.016 97.923 357.483 97.841 356.979 97.741C355.975 97.543 355.126 97.376 354.411 97.235C351.554 96.655 350.846 96.427 350.882 96.233C350.918 96.038 351.627 96.085 354.468 96.581C355.178 96.709 356.021 96.861 357.022 97.041C357.513 97.139 358.082 97.204 358.696 97.475C359.335 97.744 359.823 98.338 360.19 98.907C361.686 101.174 363.582 104.05 365.982 107.689C366.543 108.539 367.078 109.348 367.587 110.119C367.836 110.49 368.091 110.805 368.396 110.968C368.702 111.138 369.092 111.193 369.497 111.231C371.159 111.382 372.644 111.517 373.97 111.637C376.621 111.888 378.634 112.079 380.139 112.222C383.148 112.531 384.12 112.704 384.102 112.901Z" fill="white"/>
<path d="M412.48 34.815C412.338 35.184 410.276 34.368 403.485 31.751C403.006 31.567 402.552 31.392 402.121 31.226C401.699 31.036 401.285 30.982 400.826 30.606C400.396 30.164 400.373 29.741 400.233 29.418C400.115 29.072 400.004 28.748 399.9 28.444C399.486 27.227 399.188 26.331 398.986 25.674C398.581 24.36 398.556 24 398.744 23.935C398.931 23.871 399.119 24.158 399.595 25.433C399.821 26.075 400.133 26.958 400.559 28.166C400.663 28.469 400.774 28.792 400.893 29.137C401.018 29.475 401.119 29.894 401.287 30.058C401.44 30.234 401.903 30.368 402.327 30.541C402.757 30.707 403.212 30.882 403.691 31.067C410.87 33.833 412.622 34.446 412.48 34.815Z" fill="white"/>
<path d="M465.105 74.846C465.11 74.943 464.717 75.041 463.794 75.13C462.872 75.196 461.405 75.341 459.273 75.022C458.217 74.84 456.979 74.505 455.738 73.739C454.496 72.976 453.375 71.797 452.176 70.514C449.753 67.957 446.702 64.918 442.759 61.517C440.581 59.635 438.553 58.029 436.707 56.625C435.784 55.923 434.902 55.276 434.066 54.675C433.181 54.054 432.35 53.47 431.571 52.923C430.997 50.103 430.537 47.846 430.171 46.047C429.831 44.28 429.578 42.962 429.391 41.99C429.043 40.041 429.016 39.465 429.162 39.435C429.309 39.405 429.503 39.925 429.948 41.843C430.158 42.805 430.444 44.113 430.83 45.875C431.191 47.604 431.644 49.777 432.212 52.5C432.913 52.992 433.66 53.516 434.456 54.075C435.288 54.672 436.165 55.315 437.083 56.013C438.92 57.407 440.935 59.007 443.104 60.872C447.301 64.484 450.475 67.665 452.95 70.296C454.171 71.615 455.281 72.714 456.453 73.351C457.614 74.007 458.763 74.274 459.743 74.435C461.722 74.725 463.083 74.642 463.921 74.681C464.764 74.697 465.101 74.746 465.105 74.846Z" fill="white"/>
<path d="M290.899 57.502C290.606 57.737 289.39 56.415 285.417 51.735C284.864 50.989 284.66 50.122 284.566 49.437C284.485 48.751 284.414 48.144 284.351 47.609C284.233 46.544 284.152 45.761 284.109 45.19C284.022 44.047 284.082 43.748 284.278 43.725C284.475 43.702 284.59 43.968 284.755 45.09C284.837 45.651 284.932 46.426 285.055 47.486C285.117 48.013 285.188 48.611 285.268 49.289C285.363 49.953 285.51 50.642 285.976 51.29C286.409 51.899 286.93 52.433 287.352 52.931C287.784 53.425 288.171 53.866 288.516 54.259C289.205 55.047 289.724 55.649 290.102 56.108C290.857 57.025 291.048 57.372 290.899 57.502Z" fill="white"/>
<path d="M210.09 123.584C209.993 123.756 209.191 123.369 207.169 122.163C205.152 120.952 201.991 118.857 197.104 115.689C194.359 113.858 192.19 112.472 190.469 111.258C190.04 110.927 189.652 110.476 189.488 109.972C189.323 109.48 189.306 109.033 189.281 108.648C189.241 107.877 189.207 107.225 189.178 106.676C189.08 104.478 189.138 103.916 189.335 103.904C189.532 103.891 189.651 104.417 189.826 106.586C189.866 107.129 189.914 107.774 189.97 108.539C190.017 109.322 190.073 110.084 190.853 110.655C192.472 111.806 194.698 113.226 197.416 115.044C207.728 121.796 210.284 123.233 210.09 123.584Z" fill="white"/>
<path d="M205.719 116.591C205.46 116.915 203.7 115.385 197.603 110.774C190.682 105.624 189.418 104.878 189.66 104.533C189.872 104.23 191.042 105.005 197.984 110.169C204.444 115.056 205.953 116.3 205.719 116.591Z" fill="white"/>
<path d="M217.162 166.009C216.905 166.254 214.878 164.299 208.889 157.3C205.538 153.326 203.679 150.919 202.645 149.52C201.617 148.116 201.43 147.705 201.586 147.587C201.745 147.466 202.063 147.753 203.138 149.09C204.22 150.422 206.046 152.82 209.387 156.786C212.526 160.489 214.578 162.696 215.768 164.045C216.963 165.392 217.308 165.872 217.162 166.009Z" fill="white"/>
<path d="M164.025 138.729C163.971 138.919 162.937 138.723 160.262 138.008C158.928 137.638 157.18 137.153 154.937 136.53C153.817 136.212 152.574 135.86 151.197 135.469C150.508 135.273 149.787 135.068 149.03 134.852C148.286 134.632 147.386 134.398 146.681 133.687C145.921 132.877 145.648 131.954 145.272 131.182C144.915 130.386 144.578 129.634 144.26 128.923C143.624 127.5 143.062 126.244 142.566 125.134C141.587 122.909 140.867 121.276 140.344 120.086C139.322 117.696 139.138 117.057 139.319 116.976C139.5 116.895 139.834 117.434 140.917 119.767C141.448 120.938 142.179 122.552 143.179 124.757C143.674 125.862 144.235 127.115 144.871 128.536C145.189 129.246 145.525 129.998 145.882 130.794C146.256 131.58 146.556 132.481 147.128 133.121C147.66 133.712 148.47 133.95 149.253 134.173C150.047 134.398 150.8 134.612 151.516 134.816C152.948 135.223 154.227 135.587 155.37 135.911C157.651 136.571 159.383 137.071 160.678 137.446C163.258 138.217 164.079 138.539 164.025 138.729Z" fill="white"/>
<path d="M91.128 150.599C91.034 150.773 89.945 150.293 87.165 148.847C84.385 147.401 79.915 144.988 73.059 141.296C71.124 140.254 69.39 139.321 67.838 138.485C67.062 138.067 66.33 137.673 65.642 137.302C64.959 136.912 64.305 136.637 63.683 136.164C63.383 135.926 63.113 135.603 62.973 135.242C62.829 134.886 62.788 134.535 62.772 134.216C62.755 133.575 62.79 133.043 62.797 132.52C62.828 131.487 62.854 130.615 62.876 129.88C62.98 126.939 63.089 126.197 63.287 126.201C63.485 126.205 63.555 126.918 63.53 129.829C63.52 130.557 63.508 131.422 63.495 132.447C63.491 132.953 63.467 133.528 63.475 134.091C63.491 134.66 63.601 135.176 64.059 135.549C64.505 135.928 65.207 136.238 65.882 136.619C66.569 136.989 67.298 137.382 68.074 137.8C69.625 138.636 71.358 139.569 73.293 140.612C80.538 144.525 85.034 146.953 87.718 148.403C90.387 149.88 91.221 150.425 91.128 150.599Z" fill="white"/>
<path d="M114.16 162.119C114.059 162.285 112.974 161.744 110.238 160.099C107.505 158.45 103.114 155.71 96.497 151.333C89.039 146.378 84.768 143.347 82.345 141.584C79.927 139.813 79.369 139.289 79.484 139.13C79.601 138.968 80.235 139.327 82.67 141.013C85.11 142.691 89.338 145.718 96.791 150.672C103.778 155.294 108.204 158.022 110.821 159.692C113.442 161.356 114.265 161.947 114.16 162.119Z" fill="white"/>
<path d="M133.332 165.423C133.265 165.603 132.372 165.391 130.117 164.542C127.87 163.678 124.245 162.2 118.917 159.465C115.898 157.944 113.643 156.453 111.71 155.779C109.777 155.07 108.244 155.174 107.218 155.451C106.183 155.729 105.633 156.136 105.298 156.359C104.964 156.592 104.828 156.666 104.747 156.597C104.677 156.538 104.7 156.375 104.987 156.039C105.275 155.717 105.856 155.194 106.988 154.837C108.095 154.483 109.818 154.343 111.87 155.079C113.939 155.787 116.166 157.279 119.164 158.79C124.767 161.666 128.409 163.105 130.557 164.013C132.713 164.905 133.402 165.232 133.332 165.423Z" fill="white"/>
<path d="M293.666 166.483C293.592 166.445 293.659 166.071 294.189 165.43C294.453 165.113 294.85 164.757 295.355 164.365C295.866 163.967 296.444 163.537 297.069 162.892C299.647 160.367 303.881 156.328 310.365 150.131C314.025 146.635 316.926 143.865 319.217 141.676C319.791 141.13 320.327 140.62 320.827 140.144C321.323 139.673 321.798 139.204 322.343 138.857C323.464 138.12 324.713 138.24 325.531 138.473C326.384 138.706 327.015 138.99 327.531 139.187C328.044 139.391 328.433 139.528 328.729 139.63C329.319 139.82 329.528 139.882 329.519 139.992C329.514 140.079 329.292 140.162 328.649 140.069C328.005 139.999 326.99 139.574 325.443 139.123C324.674 138.933 323.714 138.828 322.798 139.394C322.337 139.674 321.893 140.099 321.397 140.578C320.901 141.053 320.369 141.562 319.799 142.107C317.516 144.287 314.621 147.053 310.958 150.552C304.095 157.097 299.836 161.158 297.292 163.583C296.63 164.211 295.994 164.616 295.516 164.96C295.03 165.3 294.683 165.586 294.43 165.825C293.93 166.306 293.762 166.541 293.666 166.483Z" fill="white"/>
<path d="M342.434 146.149C342.212 146.476 341.792 146.167 340.378 145.207C338.781 144.123 338.499 143.956 338.721 143.629C338.943 143.302 339.169 143.525 340.767 144.609C342.263 145.625 342.656 145.822 342.434 146.149Z" fill="white"/>
<path d="M438.324 110.663C438.25 110.842 438.052 110.872 437.622 110.712C437.196 110.549 436.527 110.207 435.628 109.511C434.623 108.712 434.142 108.121 433.901 107.767C433.666 107.406 433.683 107.26 433.84 107.145C434.001 107.026 434.124 107.059 434.401 107.347C434.684 107.627 435.114 108.187 436.055 108.94C436.947 109.63 437.587 109.926 437.944 110.142C438.304 110.353 438.401 110.477 438.324 110.663Z" fill="white"/>
<path d="M219.639 130.046C219.455 130.385 218.898 130.1 217.159 129.027C215.214 127.787 214.91 127.536 215.133 127.225C215.37 126.892 215.609 127.192 217.525 128.415C219.336 129.531 219.835 129.689 219.639 130.046Z" fill="white"/>
<path d="M159.686 93.673C159.851 93.801 159.524 94.309 158.701 95.653C158.295 96.328 157.772 97.219 157.203 98.414C156.908 99.007 156.666 99.691 156.255 100.466C155.85 101.26 155.103 101.955 154.294 102.534C147.038 107.786 145.824 108.687 145.591 108.368C145.358 108.048 146.57 107.244 153.822 101.996C154.668 101.39 155.302 100.786 155.661 100.061C156.032 99.343 156.307 98.594 156.622 97.978C157.23 96.73 157.786 95.831 158.228 95.181C159.126 93.886 159.538 93.558 159.686 93.673Z" fill="white"/>
<path d="M237.082 70.826C236.907 70.472 240.971 68.483 254.278 61.898C256.158 60.973 257.825 60.144 259.125 59.138C260.442 58.153 261.442 57.076 262.256 56.076C263.872 54.058 264.803 52.373 265.509 51.173C266.881 48.741 267.261 48.131 267.445 48.228C267.612 48.315 267.409 48.969 266.11 51.436C265.44 52.656 264.519 54.362 262.874 56.446C262.04 57.474 261.019 58.604 259.645 59.641C258.286 60.705 256.571 61.566 254.695 62.488C240.625 69.45 237.257 71.181 237.082 70.826Z" fill="white"/>
<path d="M384.08 34.511C383.694 34.327 384.068 33.885 384.512 32.142C384.733 31.151 384.748 30.555 384.812 30.219C384.869 29.881 384.959 29.793 385.159 29.794C385.355 29.794 385.444 29.881 385.465 30.24C385.48 30.597 385.444 31.232 385.211 32.288C384.706 34.25 384.397 34.673 384.08 34.511Z" fill="white"/>
<path d="M77.846 112.652C77.709 112.515 78.181 111.89 79.63 110.436C81.089 108.994 83.515 106.706 87.502 103.52C88.595 102.599 89.769 101.902 90.358 101.079C90.93 100.251 90.87 99.194 90.963 98.303C91.11 96.512 91.217 95.197 91.296 94.239C91.48 92.326 91.609 91.847 91.806 91.862C92.003 91.876 92.054 92.346 91.95 94.245C91.886 95.194 91.798 96.5 91.679 98.287C91.643 98.734 91.623 99.204 91.557 99.736C91.489 100.259 91.358 100.866 90.994 101.416C90.638 101.96 90.128 102.38 89.614 102.777C89.107 103.173 88.571 103.59 88.006 104.031C83.815 107.377 81.418 109.694 79.952 111.034C78.497 112.387 77.989 112.795 77.846 112.652Z" fill="white"/>
<path d="M122.281 98.439C122.116 98.577 121.791 98.253 120.845 97.523C120.368 97.16 119.714 96.719 118.836 96.181C117.967 95.632 116.845 95.02 115.613 94.034C114.214 92.91 113.429 91.662 112.954 90.657C112.476 89.64 112.302 88.822 112.211 88.233C112.065 87.042 112.217 86.736 112.396 86.736C112.61 86.732 112.644 87.011 112.849 88.093C112.968 88.629 113.141 89.376 113.581 90.316C114.024 91.246 114.726 92.398 116.028 93.453C117.251 94.439 118.411 95.06 119.305 95.634C120.21 96.193 120.877 96.681 121.341 97.087C122.263 97.919 122.422 98.327 122.281 98.439Z" fill="white"/>
<path d="M139.171 111.153C138.992 111.228 138.768 110.956 138.407 110.139C138.051 109.321 137.545 107.959 136.967 105.816C136.331 103.393 136.114 101.938 136.025 101.106C135.945 100.271 136.018 100.048 136.212 100.024C136.411 99.999 136.514 100.188 136.668 100.99C136.831 101.79 137.024 103.213 137.647 105.601C138.248 107.831 138.775 109.166 139.045 109.979C139.321 110.789 139.357 111.076 139.171 111.153Z" fill="white"/>
<path d="M299.558 151.876C299.408 151.546 300.737 150.838 305.355 149.194C307.971 148.296 309.534 147.874 310.437 147.67C311.342 147.472 311.593 147.51 311.641 147.7C311.69 147.893 311.494 148.026 310.627 148.295C309.762 148.57 308.218 148.967 305.623 149.855C300.787 151.583 299.733 152.274 299.558 151.876Z" fill="white"/>
<path d="M455.602 138.659C455.572 138.843 454.821 138.847 452.907 138.44C451.015 137.994 447.897 137.187 443.6 134.889C442.996 134.563 442.433 134.236 441.906 133.916C441.376 133.594 440.915 133.293 440.467 133.198C440.033 133.098 439.572 133.205 439.11 133.324C438.641 133.444 438.202 133.556 437.79 133.662C436.137 134.072 434.924 134.372 434.04 134.591C432.266 135.002 431.796 135.027 431.747 134.835C431.698 134.643 432.103 134.452 433.839 133.968C434.71 133.738 435.91 133.421 437.55 132.988C437.961 132.882 438.399 132.769 438.866 132.649C439.329 132.536 439.889 132.368 440.539 132.484C441.177 132.602 441.706 132.961 442.217 133.27C442.734 133.584 443.285 133.907 443.878 134.229C448.338 136.619 451.439 137.345 453.229 137.846C455.042 138.302 455.638 138.453 455.602 138.659Z" fill="white"/>
<path d="M530.828 142.199C530.788 142.388 530.37 142.407 529.317 142.194C528.268 141.976 526.576 141.544 524.072 140.626C521.252 139.569 519.681 138.759 518.802 138.27C517.927 137.769 517.753 137.558 517.846 137.388C517.942 137.212 518.191 137.259 519.08 137.679C519.973 138.087 521.501 138.898 524.281 139.944C526.891 140.901 528.574 141.298 529.563 141.582C530.557 141.858 530.87 142.001 530.828 142.199Z" fill="white"/>
<path d="M559.644 160.928C559.339 161.18 557.55 159.053 551.626 152.115C544.939 144.284 543.791 142.97 544.088 142.709C544.385 142.448 545.426 143.756 552.123 151.599C558.392 158.941 559.949 160.675 559.644 160.928Z" fill="white"/>
<path d="M570.299 166.221C570.174 166.372 569.639 166.057 568.38 165.038C567.127 164.013 565.141 162.293 562.241 159.503C560.597 157.929 559.388 156.601 558.255 155.839C557.136 155.053 556.163 154.79 555.463 154.69C554.757 154.599 554.314 154.664 554.04 154.674C553.766 154.691 553.653 154.662 553.618 154.566C553.585 154.476 553.646 154.371 553.92 154.245C554.192 154.128 554.694 153.98 555.496 154.037C556.287 154.099 557.397 154.381 558.613 155.22C559.849 156.039 561.066 157.39 562.692 158.946C565.743 161.882 567.75 163.581 568.914 164.633C570.084 165.681 570.427 166.067 570.299 166.221Z" fill="white"/>
<path d="M444.471 114.876C444.252 115.205 443.984 115.002 443.07 114.393C442.038 113.705 441.852 113.605 442.072 113.276C442.292 112.947 442.426 113.106 443.459 113.795C444.426 114.439 444.691 114.547 444.471 114.876Z" fill="white"/>
<path d="M490.402 91.875C490.179 92.202 488.182 90.817 481.592 86.33C479.737 85.077 478.248 84.031 477.106 83.295C475.986 82.581 475.001 82.9 474.253 82.987C472.731 83.248 472.267 82.954 472.325 82.79C472.373 82.564 472.673 82.666 474.104 82.351C474.468 82.279 474.911 82.175 475.481 82.149C476.045 82.111 476.78 82.261 477.417 82.652C478.651 83.431 480.067 84.443 481.944 85.708C488.911 90.451 490.624 91.548 490.402 91.875Z" fill="white"/>
<path d="M353.707 113.303C353.561 113.443 352.875 112.842 351.154 111.172C349.427 109.511 346.675 106.763 342.182 102.851C339.643 100.674 337.563 98.925 335.921 97.727C335.101 97.183 334.233 97.057 333.458 96.941C332.675 96.829 332.013 96.734 331.456 96.654C329.226 96.318 328.672 96.151 328.697 95.955C328.723 95.759 329.275 95.746 331.491 96C332.045 96.067 332.704 96.148 333.485 96.243C334.254 96.35 335.259 96.467 336.231 97.081C337.168 97.693 338.036 98.468 339.099 99.318C340.144 100.177 341.304 101.147 342.58 102.254C347.352 106.405 350.131 109.184 351.766 110.862C353.391 112.551 353.847 113.17 353.707 113.303Z" fill="white"/>
<path d="M212.973 107.216C212.695 107.498 210.863 105.663 204.802 99.688C203.949 98.864 203.176 98.047 202.5 97.458C201.829 96.859 201.084 96.869 200.312 96.862C198.809 96.842 197.705 96.821 196.901 96.79C195.294 96.729 194.888 96.631 194.89 96.433C194.892 96.235 195.282 96.155 196.873 96.136C197.669 96.139 198.764 96.143 200.262 96.148C200.633 96.155 201.047 96.143 201.516 96.221C201.988 96.29 202.497 96.532 202.896 96.859C203.685 97.532 204.379 98.293 205.256 99.134C211.665 105.452 213.251 106.934 212.973 107.216Z" fill="white"/>
<path d="M239.15 130.719C238.88 131.008 236.093 128.374 226.904 119.782C224.263 117.414 222.416 115.182 220.326 114.602C218.251 113.93 216.646 113.496 215.524 113.132C213.255 112.423 212.704 112.165 212.759 111.975C212.814 111.785 213.39 111.865 215.657 112.491C216.795 112.817 218.337 113.223 220.483 113.902C221.564 114.243 222.761 114.937 223.812 115.924C224.854 116.896 226.02 117.983 227.321 119.196C237.037 128.281 239.42 130.429 239.15 130.719Z" fill="white"/>
<path d="M248.32 137.366C248.2 137.518 247.672 137.235 246.439 136.279C245.213 135.315 243.268 133.69 240.487 130.986C237.321 127.966 235.814 125.783 234.576 125.251C233.982 124.947 233.575 124.941 233.326 124.923C233.076 124.914 232.965 124.884 232.932 124.786C232.901 124.697 232.961 124.591 233.247 124.485C233.524 124.385 234.09 124.325 234.823 124.646C235.556 124.955 236.384 125.643 237.294 126.665C238.212 127.661 239.386 128.917 240.942 130.435C243.861 133.274 245.823 134.87 246.959 135.863C248.105 136.845 248.445 137.208 248.32 137.366Z" fill="white"/>
<path d="M181.664 136.827C181.475 136.939 181.256 136.651 180.643 135.969C180.028 135.312 178.98 134.16 176.844 133.304C174.401 132.413 172.822 132.683 171.988 132.759C171.136 132.877 170.901 132.887 170.838 132.685C170.78 132.51 170.959 132.329 171.856 132.119C172.734 131.953 174.442 131.68 177.067 132.624C179.491 133.593 180.624 134.877 181.202 135.622C181.772 136.4 181.82 136.738 181.664 136.827Z" fill="white"/>
<path d="M99.843 148.825C99.802 149 99.422 149.057 98.614 148.664C98.216 148.466 97.729 148.141 97.178 147.672C96.62 147.211 96.0049 146.592 95.2079 145.966C94.3219 145.291 93.449 145.01 92.783 144.915C92.109 144.831 91.629 144.93 91.311 145.052C90.692 145.332 90.545 145.49 90.378 145.341C90.247 145.244 90.243 144.932 91.024 144.465C91.799 144.046 93.573 143.884 95.617 145.382C96.518 146.091 97.149 146.727 97.694 147.178C98.234 147.635 98.663 147.931 98.995 148.131C99.661 148.517 99.899 148.619 99.843 148.825Z" fill="white"/>
<path d="M245.423 163.35C245.39 163.534 244.697 163.54 242.94 163.142C241.201 162.717 238.341 161.94 234.397 159.806C233.3 159.197 232.335 158.679 231.413 158.462C230.495 158.239 229.642 158.299 228.909 158.427C227.437 158.725 226.419 159.263 225.676 159.61C224.2 160.358 223.8 160.531 223.695 160.351C223.6 160.189 223.881 159.881 225.34 159.048C226.08 158.659 227.116 158.084 228.714 157.739C229.51 157.583 230.468 157.516 231.512 157.752C232.558 157.986 233.592 158.545 234.68 159.148C238.773 161.364 241.611 162.068 243.253 162.549C244.916 162.993 245.461 163.146 245.423 163.35Z" fill="white"/>
<path d="M287.761 86.211C287.97 86.505 286.924 87.377 283.083 89.549C282.531 89.85 282.076 90.092 281.806 90.413C281.52 90.725 281.359 91.099 281.229 91.44C280.982 92.133 280.831 92.709 280.642 93.104C280.259 93.91 279.956 93.998 279.829 93.879C279.661 93.738 279.767 93.592 280.029 92.878C280.165 92.516 280.288 91.988 280.549 91.224C280.691 90.848 280.869 90.392 281.25 89.963C281.626 89.516 282.181 89.231 282.709 88.941C286.718 86.667 287.514 85.852 287.761 86.211Z" fill="white"/>
<path d="M361.141 52.956C361.284 53.085 361.047 53.505 360.218 54.434C359.385 55.357 357.972 56.806 355.615 58.811C352.939 61.055 351.236 62.194 350.249 62.817C349.253 63.43 348.95 63.503 348.845 63.339C348.737 63.17 348.932 62.954 349.863 62.29C350.785 61.616 352.469 60.515 355.119 58.298C357.583 56.203 358.964 54.741 359.821 53.905C360.674 53.06 360.991 52.82 361.141 52.956Z" fill="white"/>
<path d="M384.732 104.853C384.423 104.604 385.508 103.304 388.99 99.002C389.969 97.806 390.524 96.753 390.645 95.856C390.766 94.946 390.762 94.18 390.93 93.631C391.086 93.076 391.338 92.758 391.523 92.631C391.711 92.502 391.813 92.516 391.876 92.588C392.04 92.771 391.783 92.87 391.57 93.762C391.46 94.222 391.475 94.901 391.355 95.925C391.228 96.985 390.573 98.192 389.574 99.412C385.883 103.973 385.039 105.1 384.732 104.853Z" fill="white"/>
<path d="M438.935 122.625C438.801 122.767 438.182 122.32 436.718 120.959C435.26 119.592 432.947 117.32 429.569 113.678C427.699 111.613 426.082 110.023 425.286 108.334C424.528 106.643 424.44 105.327 424.22 104.435C423.84 102.636 423.595 102.243 423.8 102.136C423.938 102.047 424.372 102.408 424.848 104.248C425.107 105.148 425.229 106.45 425.901 107.966C426.588 109.486 428.163 111.071 430.042 113.139C433.601 116.977 435.94 119.233 437.301 120.615C438.667 121.989 439.073 122.479 438.935 122.625Z" fill="white"/>
<path d="M506.479 121.651C506.38 121.804 505.694 121.511 504.106 120.398C502.535 119.272 500.007 117.354 496.747 113.794C493.119 109.729 491.519 106.934 490.621 105.361C489.751 103.76 489.644 103.298 489.811 103.211C489.995 103.115 490.251 103.474 491.166 104.998C492.109 106.495 493.655 109.242 497.226 113.262C500.625 116.974 503.167 118.83 504.63 119.971C506.115 121.096 506.595 121.475 506.479 121.651Z" fill="white"/>
<path d="M300.219 89.086C300.246 89.045 300.283 89.014 300.31 88.987C300.318 88.984 300.319 88.967 300.319 88.967C300.315 88.98 300.316 89.004 300.316 89.004C300.317 89.022 300.324 89.002 300.27 88.965C300.153 88.918 300.21 88.902 300.164 88.828C300.144 88.768 300.09 88.678 300.063 88.672C299.595 88.282 298.875 87.584 297.774 86.526C295.285 84.135 294.85 83.744 295.124 83.459C295.398 83.174 295.761 83.603 298.252 85.996C299.431 87.135 300.121 87.76 300.589 88.282C300.733 88.501 300.743 88.674 300.74 88.823C300.727 88.97 300.696 89.11 300.559 89.233C300.485 89.297 300.381 89.313 300.315 89.297C300.261 89.277 300.219 89.25 300.21 89.223C300.18 89.17 300.192 89.127 300.219 89.086Z" fill="white"/>
<path d="M514.119 124.646C514.078 125.006 513.606 125.047 512.313 124.482C511.598 124.136 511.231 123.836 511.052 123.639C510.876 123.436 510.894 123.32 511.027 123.175C511.161 123.028 511.26 123.008 511.462 123.13C511.666 123.247 511.974 123.523 512.61 123.834C513.827 124.359 514.185 124.22 514.119 124.646Z" fill="white"/>
<path d="M250.96 141.87C250.606 142.048 250.569 141.928 250.388 141.567C250.183 141.159 250.13 141.099 250.483 140.921C250.837 140.743 250.818 140.836 251.023 141.244C251.216 141.626 251.314 141.693 250.96 141.87Z" fill="white"/>
<path d="M258.511 149.491C258.231 149.771 258.025 149.536 257.301 148.812C256.484 147.995 256.331 147.871 256.611 147.591C256.891 147.311 256.982 147.484 257.8 148.302C258.566 149.067 258.791 149.211 258.511 149.491Z" fill="white"/>
<path d="M326.936 148.619C327.08 148.987 326.682 149.121 325.399 149.624C323.951 150.192 323.713 150.307 323.569 149.939C323.425 149.571 323.68 149.532 325.129 148.964C326.485 148.432 326.791 148.25 326.936 148.619Z" fill="white"/>
<path d="M340.257 71.652C340.492 71.971 340.035 72.281 338.578 73.355C336.933 74.566 336.666 74.788 336.432 74.47C336.197 74.151 336.498 74.002 338.144 72.789C339.685 71.654 340.023 71.333 340.257 71.652Z" fill="white"/>
<path d="M232.849 73.794C232.995 74.162 232.569 74.308 231.197 74.852C229.648 75.465 229.393 75.588 229.248 75.22C229.102 74.852 229.374 74.807 230.924 74.193C232.374 73.618 232.703 73.426 232.849 73.794Z" fill="white"/>
<path d="M216.244 86.823C215.876 87.036 215.685 86.433 214.42 84.888C213.685 84.034 213.179 83.608 212.927 83.325C212.67 83.045 212.651 82.914 212.777 82.759C212.901 82.606 213.03 82.598 213.349 82.826C213.664 83.059 214.18 83.519 214.953 84.414C216.352 86.13 216.559 86.649 216.244 86.823Z" fill="white"/>
<path d="M291.632 159.268C291.801 159.602 290.211 160.459 284.826 162.846C278.768 165.542 277.822 166.155 277.632 165.775C277.467 165.447 278.417 164.918 284.495 162.212C290.174 159.691 291.444 158.892 291.632 159.268Z" fill="white"/>
<path d="M536.887 166.864C536.703 167.214 532.974 165.23 520.707 158.777C506.861 151.494 504.505 150.278 504.69 149.928C504.874 149.578 507.09 150.809 520.946 158.097C533.916 164.919 537.071 166.514 536.887 166.864Z" fill="white"/>
<path d="M258.527 166.395C258.354 166.476 257.797 165.557 256.622 162.991C256.037 161.707 255.305 160.008 254.428 157.802C253.992 156.698 253.52 155.467 253.02 154.096C252.775 153.409 252.518 152.688 252.249 151.932C252.034 151.302 251.81 150.644 251.576 149.955C250.923 152.927 250.406 155.282 249.998 157.143C249.453 159.556 249.053 161.329 248.761 162.619C248.152 165.194 247.917 165.826 247.724 165.781C247.531 165.736 247.586 165.092 248.112 162.53C248.386 161.252 248.764 159.491 249.281 157.084C249.545 155.882 249.844 154.518 250.183 152.973C250.353 152.2 250.532 151.382 250.722 150.516C250.862 149.879 251.005 149.225 251.153 148.553L251.304 147.865L251.38 147.517L251.418 147.342L251.437 147.254L251.465 147.334C251.615 147.789 251.766 148.251 251.919 148.718C252.273 149.769 252.61 150.77 252.932 151.723C253.214 152.511 253.481 153.26 253.736 153.972C254.256 155.39 254.741 156.65 255.184 157.771C256.072 160.012 256.787 161.696 257.32 162.956C258.394 165.473 258.712 166.309 258.527 166.395Z" fill="white"/>
<path d="M267.589 166.317C267.421 166.412 267.026 165.938 266.247 164.532C265.859 163.828 265.382 162.889 264.822 161.659C264.544 161.043 264.246 160.355 263.933 159.584C263.781 159.197 263.622 158.792 263.455 158.367C263.382 158.17 263.305 157.964 263.224 157.749C263.21 157.815 263.197 157.877 263.185 157.937C263.088 158.407 262.984 158.849 262.881 159.266C262.675 160.099 262.464 160.828 262.264 161.466C261.861 162.743 261.499 163.66 261.214 164.318C260.631 165.629 260.376 165.914 260.206 165.836C260.024 165.753 260.109 165.41 260.604 164.098C260.846 163.44 261.186 162.537 261.577 161.279C261.772 160.65 261.979 159.932 262.183 159.111C262.285 158.701 262.388 158.265 262.484 157.8C262.563 157.389 262.644 156.967 262.727 156.533C262.818 156.028 262.911 155.51 263.006 154.978C263.106 155.266 263.221 155.595 263.338 155.929C263.51 156.416 263.678 156.891 263.842 157.355C263.94 157.619 264.035 157.877 264.128 158.128C264.301 158.568 264.466 158.986 264.623 159.384C264.945 160.174 265.251 160.874 265.531 161.495C266.092 162.736 266.552 163.663 266.892 164.358C267.578 165.743 267.766 166.217 267.589 166.317Z" fill="white"/>
<path d="M380.593 165.829C380.407 165.896 379.997 165.038 379.105 162.704C378.671 161.532 378.103 159.996 377.373 158.026C376.723 156.233 375.93 154.044 374.97 151.395C374.861 151.752 374.755 152.1 374.651 152.438C374.431 153.192 374.222 153.904 374.026 154.578C373.643 155.928 373.325 157.126 373.053 158.186C372.512 160.307 372.152 161.873 371.884 163.013C371.356 165.294 371.167 165.862 370.968 165.824C370.778 165.788 370.787 165.21 371.235 162.926C371.463 161.785 371.805 160.218 372.342 158.093C372.611 157.031 372.929 155.829 373.313 154.474C373.51 153.798 373.72 153.082 373.941 152.325C374.059 151.94 374.18 151.544 374.304 151.137C374.428 150.742 374.554 150.342 374.682 149.937L374.875 149.325L374.924 149.171L374.979 149.323L375.09 149.63C376.32 153.025 377.317 155.776 378.12 157.992C378.84 160.011 379.387 161.544 379.796 162.69C380.589 164.988 380.779 165.761 380.593 165.829Z" fill="white"/>
<path d="M386.354 166.379C385.997 166.599 385.159 165.023 381.871 160.196C381.398 159.521 380.975 158.916 380.596 158.374C380.404 158.105 380.223 157.852 380.052 157.613C379.875 157.371 379.727 157.139 379.598 157.039C379.441 156.941 379.486 156.96 379.413 157C379.337 157.065 379.227 157.281 379.129 157.443C378.93 157.776 378.761 158.058 378.619 158.295C378.036 159.236 377.817 159.433 377.645 159.336C377.473 159.239 377.531 158.964 378.039 157.994C378.169 157.753 378.324 157.467 378.508 157.128C378.612 156.96 378.666 156.79 378.884 156.53C378.99 156.409 379.192 156.269 379.424 156.26C379.661 156.243 379.867 156.345 380.006 156.45C380.295 156.672 380.439 156.933 380.61 157.159C380.781 157.398 380.962 157.652 381.156 157.922C381.536 158.466 381.961 159.074 382.436 159.752C385.922 164.884 386.668 166.187 386.354 166.379Z" fill="white"/>
<path d="M365.392 165.884C365.22 165.978 364.877 165.56 364.184 164.337C363.838 163.725 363.408 162.911 362.881 161.853C362.624 161.321 362.338 160.731 362.021 160.076C361.793 159.583 361.543 159.042 361.27 158.449C361.017 159.709 360.817 160.708 360.659 161.497C360.414 162.702 360.228 163.586 360.078 164.227C359.777 165.508 359.62 165.816 359.426 165.778C359.232 165.739 359.211 165.411 359.431 164.128C359.553 163.489 359.721 162.608 359.95 161.405C360.07 160.804 360.206 160.123 360.361 159.351C360.45 158.906 360.544 158.435 360.644 157.937C360.73 157.506 360.818 157.063 360.91 156.608L360.979 156.264C360.993 156.228 360.997 156.1 361.019 156.139L361.091 156.301C361.188 156.518 361.286 156.738 361.385 156.961C361.667 157.588 361.936 158.186 362.192 158.755C362.368 159.132 362.535 159.49 362.694 159.83C363.021 160.506 363.313 161.11 363.574 161.649C364.109 162.721 364.514 163.535 364.818 164.143C365.423 165.362 365.567 165.788 365.392 165.884Z" fill="white"/>
<path d="M479.451 166.278C479.265 166.359 479.006 165.954 478.417 164.857C477.812 163.772 476.889 161.963 475.006 159.507L474.934 159.415C474.914 159.593 474.896 159.762 474.878 159.921C474.787 160.626 474.707 161.25 474.637 161.8C474.479 162.898 474.335 163.7 474.212 164.28C473.962 165.44 473.806 165.715 473.614 165.677C473.418 165.639 473.396 165.344 473.564 164.193C473.649 163.618 473.766 162.825 473.925 161.742C473.995 161.199 474.073 160.583 474.162 159.886C474.218 159.359 474.277 158.801 474.34 158.21C474.361 158.017 474.382 157.822 474.403 157.624C474.529 157.777 474.656 157.933 474.786 158.09C475.031 158.396 475.282 158.709 475.54 159.032C477.577 161.684 478.52 163.552 479.05 164.665C479.562 165.793 479.628 166.202 479.451 166.278Z" fill="white"/>
<path d="M154.422 165.856C154.473 165.872 154.516 165.895 154.564 165.853C154.59 165.833 154.624 165.811 154.587 165.802C154.583 165.775 154.569 165.723 154.514 165.624C154.278 165.179 153.922 164.428 153.594 163.3C153.25 162.173 152.935 160.663 152.627 158.732C152.468 157.768 152.304 156.698 152.079 155.529C151.966 154.945 151.838 154.335 151.673 153.706C151.595 153.39 151.507 153.07 151.405 152.747L151.368 152.626C150.698 155.193 150.168 157.227 149.749 158.834C149.22 160.803 148.831 162.248 148.548 163.301C147.956 165.399 147.726 165.91 147.535 165.86C147.344 165.81 147.395 165.278 147.904 163.182C148.17 162.137 148.537 160.697 149.039 158.73C149.295 157.748 149.586 156.633 149.915 155.37C150.08 154.739 150.254 154.07 150.439 153.362C150.546 152.952 150.656 152.53 150.769 152.097C150.866 151.729 150.965 151.356 151.064 150.978L151.215 150.424L151.253 150.284C151.265 150.234 151.278 150.168 151.296 150.253L151.396 150.533C151.521 150.884 151.644 151.231 151.766 151.574L151.946 152.081L152.078 152.509C152.19 152.862 152.286 153.209 152.37 153.549C152.547 154.228 152.681 154.879 152.801 155.496C153.037 156.732 153.202 157.838 153.363 158.818C153.671 160.782 153.983 162.242 154.278 163.316C154.57 164.403 154.825 165.051 154.961 165.551C154.994 165.698 154.998 165.888 154.862 166.034C154.708 166.167 154.581 166.133 154.495 166.101C154.404 166.065 154.352 165.97 154.363 165.918C154.369 165.867 154.399 165.855 154.422 165.856Z" fill="white"/>
<path d="M162.894 166.615C162.705 166.675 162.413 166.128 161.837 164.626C161.549 163.875 161.189 162.884 160.735 161.611C160.373 160.586 159.931 159.335 159.396 157.82C159.35 158.272 159.309 158.677 159.272 159.04C159.173 159.886 159.085 160.633 159.008 161.293C158.838 162.611 158.688 163.577 158.561 164.278C158.304 165.679 158.146 166.022 157.958 165.992C157.766 165.961 157.744 165.603 157.918 164.204C158.008 163.505 158.131 162.543 158.299 161.229C158.375 160.571 158.462 159.826 158.56 158.981C158.607 158.521 158.656 158.035 158.709 157.519C158.794 156.561 158.883 155.55 158.977 154.483C159.098 154.825 159.234 155.213 159.374 155.609C160.22 158.004 160.905 159.945 161.457 161.509C161.908 162.818 162.25 163.812 162.506 164.555C162.993 166.048 163.082 166.555 162.894 166.615Z" fill="white"/>
<path d="M58.626 167.482C58.429 167.53 58.213 166.972 57.74 165.482C57.248 164.002 56.522 161.565 54.879 158.047C54.787 157.856 54.697 157.669 54.61 157.488C54.552 157.676 54.497 157.853 54.445 158.021C54.182 158.866 53.95 159.612 53.745 160.272C53.333 161.589 53.023 162.555 52.784 163.253C52.305 164.65 52.105 164.979 51.916 164.921C51.727 164.862 51.752 164.496 52.151 163.091C52.362 162.392 52.652 161.428 53.049 160.112C53.253 159.455 53.484 158.71 53.746 157.866C53.95 157.21 54.166 156.516 54.395 155.781L54.45 155.605C54.47 155.562 54.503 155.689 54.529 155.723L54.697 156.06C54.81 156.286 54.925 156.515 55.041 156.748C55.19 157.053 55.343 157.367 55.5 157.689C57.263 161.46 57.999 163.952 58.407 165.434C58.793 166.926 58.813 167.436 58.626 167.482Z" fill="white"/>
<path d="M253.732 156.173C253.995 156.468 253.408 157.013 251.524 158.85C249.397 160.924 249.051 161.289 248.763 161.018C248.475 160.747 248.865 160.447 251.012 158.354C253.022 156.394 253.469 155.878 253.732 156.173Z" fill="white"/>
<path d="M254.273 163.83C253.93 163.678 254.02 163.346 254.66 162.505C255.437 161.6 255.661 161.531 255.88 161.828C256.136 162.161 255.907 162.15 255.221 162.945C254.628 163.729 254.65 164.006 254.273 163.83Z" fill="white"/>
<path d="M263.348 161.82C263.58 162.141 263.324 162.3 262.523 162.879C261.619 163.532 261.478 163.659 261.246 163.338C261.014 163.017 261.195 162.958 262.099 162.305C262.946 161.694 263.116 161.499 263.348 161.82Z" fill="white"/>
<path d="M362.119 161.361C362.39 161.649 362.153 161.844 361.421 162.531C360.595 163.306 360.469 163.453 360.198 163.164C359.927 162.876 360.1 162.792 360.927 162.016C361.701 161.289 361.848 161.072 362.119 161.361Z" fill="white"/>
<path d="M376.767 155.23C377.055 155.529 376.38 156.048 374.542 158.12C372.518 160.503 372.3 161.003 371.959 160.755C371.659 160.539 371.933 160.094 373.99 157.668C375.969 155.443 376.51 154.96 376.767 155.23Z" fill="white"/>
<path d="M381.095 162.32C381.387 162.587 381.218 162.741 380.715 163.29C380.147 163.91 380.066 164.029 379.774 163.761C379.482 163.494 379.617 163.432 380.185 162.812C380.717 162.232 380.803 162.053 381.095 162.32Z" fill="white"/>
<path d="M153.015 156.621C153.238 156.948 152.75 157.256 151.185 158.322C149.419 159.526 149.132 159.747 148.909 159.42C148.686 159.093 149.005 158.946 150.772 157.741C152.425 156.614 152.792 156.294 153.015 156.621Z" fill="white"/>
<path d="M150.7 164.283C150.487 163.949 150.78 163.787 151.704 163.199C152.747 162.535 152.913 162.405 153.125 162.738C153.337 163.072 153.138 163.131 152.094 163.796C151.118 164.418 150.913 164.617 150.7 164.283Z" fill="white"/>
</svg>
