<svg width="932" height="68" viewBox="0 0 932 68" fill="none" xmlns="http://www.w3.org/2000/svg">
<path d="M710.5 7.5V56.5H703.5V7.5H710.5Z" stroke="white"/>
<path d="M718.193 0.789001H922.96C927.209 0.789001 930.653 4.2335 930.653 8.48236V55.4853C930.653 59.7351 927.209 63.1786 922.96 63.1786H718.193C713.945 63.1786 710.5 59.7351 710.5 55.4853V8.48236C710.5 4.2335 713.945 0.789001 718.193 0.789001Z" stroke="white"/>
<path d="M930.654 10.158V42.2869H710.5V10.158H930.654Z" stroke="white"/>
<path d="M930.654 54.33V55.4853C930.654 59.7351 927.21 63.1786 922.961 63.1786H718.193C713.945 63.1786 710.5 59.7351 710.5 55.4853V54.33H930.654Z" stroke="white"/>
<path d="M770 14.146H780.896C781.172 14.1463 781.396 14.3696 781.396 14.646V37.8003C781.396 38.0765 781.172 38.3 780.896 38.3003H770C769.723 38.3003 769.5 38.077 769.5 37.8003V14.646C769.5 14.3691 769.723 14.146 770 14.146Z" stroke="white"/>
<path d="M784.805 14.146H795.703C795.979 14.1463 796.203 14.3693 796.203 14.646V37.8003C796.202 38.0769 795.979 38.3 795.703 38.3003H784.805C784.528 38.3003 784.305 38.077 784.305 37.8003V14.646C784.305 14.3691 784.528 14.146 784.805 14.146Z" stroke="white"/>
<path d="M725 14.146H762.723C763 14.146 763.223 14.3691 763.223 14.646V37.8003C763.223 38.077 762.999 38.3003 762.723 38.3003H725C724.724 38.3003 724.5 38.0767 724.5 37.8003V14.646C724.5 14.3695 724.724 14.146 725 14.146Z" stroke="white"/>
<path d="M802 14.146H839.723C839.999 14.146 840.223 14.3695 840.223 14.646V37.8003C840.222 38.0767 839.999 38.3003 839.723 38.3003H802C801.723 38.3003 801.5 38.077 801.5 37.8003V14.646C801.5 14.3691 801.723 14.146 802 14.146Z" stroke="white"/>
<path d="M878 14.146H915.722C915.999 14.146 916.222 14.3691 916.222 14.646V37.8003C916.222 38.077 915.998 38.3003 915.722 38.3003H878C877.723 38.3003 877.5 38.077 877.5 37.8003V14.646C877.5 14.3691 877.723 14.146 878 14.146Z" stroke="white"/>
<path d="M846 14.146H856.896C857.173 14.1463 857.396 14.3693 857.396 14.646V37.8003C857.396 38.0769 857.173 38.3 856.896 38.3003H846C845.723 38.3003 845.5 38.077 845.5 37.8003V14.646C845.5 14.3691 845.723 14.146 846 14.146Z" stroke="white"/>
<path d="M860.804 14.146H871.701C871.978 14.1462 872.201 14.3693 872.201 14.646V37.8003C872.201 38.0769 871.978 38.3 871.701 38.3003H860.804C860.528 38.3003 860.304 38.0767 860.304 37.8003V14.646C860.304 14.3695 860.528 14.146 860.804 14.146Z" stroke="white"/>
<path d="M715.14 14.146H719.861C720.279 14.1461 720.501 14.4289 720.501 14.646V37.8003C720.501 38.0174 720.278 38.3001 719.861 38.3003H715.14C714.723 38.3001 714.5 38.0174 714.5 37.8003V14.646C714.5 14.4289 714.722 14.1462 715.14 14.146Z" stroke="white"/>
<path d="M921.14 14.146H925.861C926.279 14.1461 926.501 14.4289 926.501 14.646V37.8003C926.501 38.0174 926.278 38.3001 925.861 38.3003H921.14C920.723 38.3001 920.5 38.0174 920.5 37.8003V14.646C920.5 14.4288 920.722 14.1461 921.14 14.146Z" stroke="white"/>
<path d="M767.262 60.7464V10H798.399V60.7464" stroke="white" stroke-miterlimit="10"/>
<path d="M782.83 10V60.7464" stroke="white" stroke-miterlimit="10"/>
<path d="M798.16 61.2464V61.5189H767.5V61.2464H798.16Z" stroke="white"/>
<path d="M843.262 60.7464V10H874.399V60.7464" stroke="white" stroke-miterlimit="10"/>
<path d="M858.83 10V60.7464" stroke="white" stroke-miterlimit="10"/>
<path d="M874.16 61.2464V61.5189H843.5V61.2464H874.16Z" stroke="white"/>
<path d="M923.5 64.18V67.4407H718.5V64.18H923.5Z" stroke="white"/>
<path d="M483.5 7.5V56.5H476.5V7.5H483.5Z" stroke="white"/>
<path d="M491.193 0.789001H695.96C700.209 0.789001 703.653 4.2335 703.653 8.48236V55.4853C703.653 59.7351 700.209 63.1786 695.96 63.1786H491.193C486.945 63.1786 483.5 59.7351 483.5 55.4853V8.48236C483.5 4.2335 486.945 0.789001 491.193 0.789001Z" stroke="white"/>
<path d="M703.654 10.158V42.2869H483.5V10.158H703.654Z" stroke="white"/>
<path d="M703.654 54.33V55.4853C703.654 59.7351 700.21 63.1786 695.961 63.1786H491.193C486.945 63.1786 483.5 59.7351 483.5 55.4853V54.33H703.654Z" stroke="white"/>
<path d="M543 14.146H553.896C554.172 14.1463 554.396 14.3696 554.396 14.646V37.8003C554.396 38.0765 554.172 38.3 553.896 38.3003H543C542.723 38.3003 542.5 38.077 542.5 37.8003V14.646C542.5 14.3691 542.723 14.146 543 14.146Z" stroke="white"/>
<path d="M557.805 14.146H568.702C568.979 14.1463 569.202 14.3693 569.202 14.646V37.8003C569.202 38.0769 568.979 38.3 568.702 38.3003H557.805C557.528 38.3003 557.305 38.077 557.305 37.8003V14.646C557.305 14.3691 557.528 14.146 557.805 14.146Z" stroke="white"/>
<path d="M498 14.146H535.723C536 14.146 536.223 14.3691 536.223 14.646V37.8003C536.223 38.077 535.999 38.3003 535.723 38.3003H498C497.724 38.3003 497.5 38.0767 497.5 37.8003V14.646C497.5 14.3695 497.724 14.146 498 14.146Z" stroke="white"/>
<path d="M575 14.146H612.723C612.999 14.146 613.223 14.3695 613.223 14.646V37.8003C613.222 38.0767 612.999 38.3003 612.723 38.3003H575C574.723 38.3003 574.5 38.077 574.5 37.8003V14.646C574.5 14.3691 574.723 14.146 575 14.146Z" stroke="white"/>
<path d="M651 14.146H688.722C688.999 14.146 689.222 14.3691 689.222 14.646V37.8003C689.222 38.077 688.998 38.3003 688.722 38.3003H651C650.723 38.3003 650.5 38.077 650.5 37.8003V14.646C650.5 14.3691 650.723 14.146 651 14.146Z" stroke="white"/>
<path d="M619 14.146H629.896C630.173 14.1463 630.396 14.3693 630.396 14.646V37.8003C630.396 38.0769 630.173 38.3 629.896 38.3003H619C618.723 38.3003 618.5 38.077 618.5 37.8003V14.646C618.5 14.3691 618.723 14.146 619 14.146Z" stroke="white"/>
<path d="M633.804 14.146H644.701C644.978 14.1462 645.201 14.3693 645.201 14.646V37.8003C645.201 38.0769 644.978 38.3 644.701 38.3003H633.804C633.528 38.3003 633.304 38.0767 633.304 37.8003V14.646C633.304 14.3695 633.528 14.146 633.804 14.146Z" stroke="white"/>
<path d="M488.14 14.146H492.861C493.279 14.1461 493.501 14.4289 493.501 14.646V37.8003C493.501 38.0174 493.278 38.3001 492.861 38.3003H488.14C487.723 38.3001 487.5 38.0174 487.5 37.8003V14.646C487.5 14.4289 487.722 14.1462 488.14 14.146Z" stroke="white"/>
<path d="M694.14 14.146H698.861C699.279 14.1461 699.501 14.4289 699.501 14.646V37.8003C699.501 38.0174 699.278 38.3001 698.861 38.3003H694.14C693.723 38.3001 693.5 38.0174 693.5 37.8003V14.646C693.5 14.4288 693.722 14.1461 694.14 14.146Z" stroke="white"/>
<path d="M540.262 60.7464V10H571.399V60.7464" stroke="white" stroke-miterlimit="10"/>
<path d="M555.83 10V60.7464" stroke="white" stroke-miterlimit="10"/>
<path d="M571.16 61.2464V61.5189H540.5V61.2464H571.16Z" stroke="white"/>
<path d="M616.262 60.7464V10H647.399V60.7464" stroke="white" stroke-miterlimit="10"/>
<path d="M631.83 10V60.7464" stroke="white" stroke-miterlimit="10"/>
<path d="M647.16 61.2464V61.5189H616.5V61.2464H647.16Z" stroke="white"/>
<path d="M696.5 64.18V67.4407H491.5V64.18H696.5Z" stroke="white"/>
<path d="M256.5 7.5V56.5H249.5V7.5H256.5Z" stroke="white"/>
<path d="M264.16 0.789001H468.927C473.176 0.789001 476.62 4.2335 476.62 8.48236V55.4853C476.62 59.7351 473.176 63.1786 468.927 63.1786H264.16C259.912 63.1786 256.467 59.7351 256.467 55.4853V8.48236C256.467 4.2335 259.912 0.789001 264.16 0.789001Z" stroke="white"/>
<path d="M241.764 0.789001C246.013 0.789001 249.457 4.2334 249.458 8.48236V55.4853C249.458 59.7351 246.014 63.1786 241.765 63.1786H10.2365C8.10149 63.1786 5.87343 62.3102 4.18179 60.8954C2.49667 59.4861 1.38873 57.5763 1.38101 55.5068L1.77652 51.4951C10.4167 29.6173 28.5221 16.9389 44.5265 9.72357C52.5325 6.1142 59.9992 3.87889 65.464 2.54584C68.1959 1.87945 70.4261 1.43868 71.9718 1.16498C72.7447 1.02813 73.3466 0.932808 73.7541 0.872009C73.9577 0.841627 74.1132 0.819755 74.2169 0.805603C74.2686 0.798562 74.3074 0.793332 74.3332 0.789978C74.3359 0.789622 74.3385 0.789317 74.341 0.789001H241.764Z" stroke="white"/>
<path d="M476.62 48.195V49.6491H256.466V48.195H476.62Z" stroke="white"/>
<path d="M249.457 48.195V49.6491H2.56299C2.76857 49.1571 2.97459 48.6715 3.18896 48.195H249.457Z" stroke="white"/>
<path d="M476.62 10.158V42.2869H256.466V10.158H476.62Z" stroke="white"/>
<path d="M249.457 10.158V42.2869H6.27425C15.5898 26.336 30.2263 16.3299 43.5838 10.158H249.457Z" stroke="white"/>
<path d="M476.62 54.33V55.4853C476.62 59.7351 473.176 63.1786 468.927 63.1786H264.159C259.911 63.1786 256.466 59.7351 256.466 55.4853V54.33H476.62Z" stroke="white"/>
<path d="M249.456 54.33V55.4853C249.456 59.7351 246.012 63.1786 241.763 63.1786H10.2355C8.10048 63.1786 5.87242 62.3102 4.18079 60.8954C2.49567 59.4861 1.38772 57.5763 1.38 55.5068L1.49622 54.33H249.456Z" stroke="white"/>
<path d="M98.102 14.146H108.999C109.275 14.1462 109.499 14.3696 109.499 14.646V37.8003C109.499 38.0765 109.275 38.3 108.999 38.3003H98.102C97.8252 38.3003 97.6022 38.077 97.602 37.8003V14.646C97.602 14.3691 97.8251 14.146 98.102 14.146Z" stroke="white"/>
<path d="M112.907 14.146H123.803C124.08 14.1463 124.303 14.3693 124.303 14.646V37.8003C124.303 38.0769 124.08 38.3 123.803 38.3003H112.907C112.631 38.3003 112.407 38.0767 112.407 37.8003V14.646C112.407 14.3695 112.631 14.146 112.907 14.146Z" stroke="white"/>
<path d="M53.521 14.146H91.2437C91.5198 14.146 91.7437 14.3695 91.7437 14.646V37.8003C91.7435 38.0767 91.5197 38.3003 91.2437 38.3003H53.521C53.2442 38.3003 53.0212 38.077 53.021 37.8003V14.646C53.021 14.3691 53.2441 14.146 53.521 14.146Z" stroke="white"/>
<path d="M130.663 14.146H168.386C168.662 14.146 168.886 14.3695 168.886 14.646V37.8003C168.885 38.0767 168.662 38.3003 168.386 38.3003H130.663C130.386 38.3003 130.163 38.077 130.163 37.8003V14.646C130.163 14.3691 130.386 14.146 130.663 14.146Z" stroke="white"/>
<path d="M206.378 14.146H244.1C244.377 14.146 244.6 14.3691 244.6 14.646V37.8003C244.6 38.077 244.376 38.3003 244.1 38.3003H206.378C206.101 38.3003 205.878 38.077 205.878 37.8003V14.646C205.878 14.3691 206.101 14.146 206.378 14.146Z" stroke="white"/>
<path d="M174.53 14.146H185.426C185.703 14.1463 185.926 14.3693 185.926 14.646V37.8091C185.922 38.0816 185.701 38.3 185.427 38.3003H174.53C174.254 38.3003 174.03 38.0767 174.03 37.8003V14.646C174.03 14.3695 174.254 14.146 174.53 14.146Z" stroke="white"/>
<path d="M189.336 14.146H200.232C200.508 14.1463 200.732 14.3696 200.732 14.646V37.8003C200.732 38.0765 200.508 38.3 200.232 38.3003H189.336C189.059 38.3003 188.836 38.077 188.836 37.8003V14.646C188.836 14.3691 189.059 14.146 189.336 14.146Z" stroke="white"/>
<path d="M315.835 14.146H326.731C327.007 14.1463 327.231 14.3696 327.231 14.646V37.8003C327.231 38.0765 327.007 38.3 326.731 38.3003H315.835C315.558 38.3003 315.335 38.077 315.335 37.8003V14.646C315.335 14.3691 315.558 14.146 315.835 14.146Z" stroke="white"/>
<path d="M330.64 14.146H341.537C341.814 14.1463 342.037 14.3693 342.037 14.646V37.8003C342.037 38.0769 341.814 38.3 341.537 38.3003H330.64C330.363 38.3003 330.14 38.077 330.14 37.8003V14.646C330.14 14.3691 330.363 14.146 330.64 14.146Z" stroke="white"/>
<path d="M271.253 14.146H308.976C309.253 14.146 309.476 14.3691 309.476 14.646V37.8003C309.475 38.077 309.252 38.3003 308.976 38.3003H271.253C270.977 38.3003 270.753 38.0767 270.753 37.8003V14.646C270.753 14.3695 270.977 14.146 271.253 14.146Z" stroke="white"/>
<path d="M348.395 14.146H386.118C386.394 14.146 386.618 14.3695 386.618 14.646V37.8003C386.617 38.0767 386.394 38.3003 386.118 38.3003H348.395C348.118 38.3003 347.895 38.077 347.895 37.8003V14.646C347.895 14.3691 348.118 14.146 348.395 14.146Z" stroke="white"/>
<path d="M424.11 14.146H461.832C462.109 14.146 462.332 14.3691 462.332 14.646V37.8003C462.332 38.077 462.108 38.3003 461.832 38.3003H424.11C423.833 38.3003 423.61 38.077 423.61 37.8003V14.646C423.61 14.3691 423.833 14.146 424.11 14.146Z" stroke="white"/>
<path d="M392.263 14.146H403.159C403.436 14.1463 403.659 14.3693 403.659 14.646V37.8003C403.659 38.0769 403.436 38.3 403.159 38.3003H392.263C391.986 38.3003 391.763 38.077 391.763 37.8003V14.646C391.763 14.3691 391.986 14.146 392.263 14.146Z" stroke="white"/>
<path d="M407.067 14.146H417.964C418.241 14.1462 418.464 14.3693 418.464 14.646V37.8003C418.464 38.0769 418.241 38.3 417.964 38.3003H407.067C406.791 38.3003 406.567 38.0767 406.567 37.8003V14.646C406.567 14.3695 406.791 14.146 407.067 14.146Z" stroke="white"/>
<path d="M46.1104 14.145C46.3861 14.1452 46.6104 14.3693 46.6104 14.645V37.7993C46.6103 38.0756 46.3863 38.2991 46.1104 38.2993H8.81844C16.1706 27.5152 25.9856 19.7185 35.8077 14.145H46.1104Z" stroke="white"/>
<path d="M260.648 14.146H265.369C265.787 14.1461 266.009 14.4289 266.009 14.646V37.8003C266.009 38.0174 265.786 38.3001 265.369 38.3003H260.648C260.231 38.3001 260.008 38.0174 260.008 37.8003V14.646C260.008 14.4289 260.23 14.1462 260.648 14.146Z" stroke="white"/>
<path d="M467.386 14.146H472.107C472.525 14.1461 472.747 14.4289 472.747 14.646V37.8003C472.747 38.0174 472.524 38.3001 472.107 38.3003H467.386C466.969 38.3001 466.746 38.0174 466.746 37.8003V14.646C466.746 14.4288 466.968 14.1461 467.386 14.146Z" stroke="white"/>
<path d="M95.385 60.7464V10H126.521V60.7464" stroke="white" stroke-miterlimit="10"/>
<path d="M110.953 10V60.7464" stroke="white" stroke-miterlimit="10"/>
<path d="M126.284 61.2464V61.5189H95.623V61.2464H126.284Z" stroke="white"/>
<path d="M171.812 60.7464V10H202.949V60.7464" stroke="white" stroke-miterlimit="10"/>
<path d="M187.381 10V60.7464" stroke="white" stroke-miterlimit="10"/>
<path d="M202.712 61.2464V61.5189H172.051V61.2464H202.712Z" stroke="white"/>
<path d="M313.117 60.7464V10H344.254V60.7464" stroke="white" stroke-miterlimit="10"/>
<path d="M328.685 10V60.7464" stroke="white" stroke-miterlimit="10"/>
<path d="M344.015 61.2464V61.5189H313.355V61.2464H344.015Z" stroke="white"/>
<path d="M389.545 60.7464V10H420.682V60.7464" stroke="white" stroke-miterlimit="10"/>
<path d="M405.113 10V60.7464" stroke="white" stroke-miterlimit="10"/>
<path d="M420.443 61.2464V61.5189H389.783V61.2464H420.443Z" stroke="white"/>
<path d="M240.418 64.18V67.4407H10.418V64.18H240.418Z" stroke="white"/>
<path d="M469.043 64.18V67.4407H264.043V64.18H469.043Z" stroke="white"/>
</svg>
