<svg width="255" height="52" viewBox="0 0 255 52" fill="none" xmlns="http://www.w3.org/2000/svg">
<mask id="path-1-outside-1_3_2" maskUnits="userSpaceOnUse" x="0" y="0" width="255" height="52" fill="black">
<rect fill="white" width="255" height="52"/>
<path class="titleheader" d="M24.488 50H11.816L1.32 3.92H14.632L24.488 50ZM27.24 47.632L21.8 22.224L24.552 3.92H37.16L27.24 47.632ZM54.076 41.488V49.808C52.668 50.2773 51.3027 50.512 49.98 50.512C47.036 50.512 44.5827 49.5947 42.62 47.76C40.7 45.9253 39.74 43.1733 39.74 39.504V13.2H51.26V37.648C51.26 39.952 52.1987 41.232 54.076 41.488ZM56.636 45.072V13.2H68.156V50H58.364L56.636 45.072ZM84.7675 18L73.2475 41.616V3.216L84.7675 1.68V18ZM84.8315 50H72.6075L90.5915 13.2H102.88L84.8315 50ZM89.7595 47.248L96.4795 33.36L102.88 50H90.6555L89.7595 47.248ZM120.015 14.16V3.92H152.271L150.351 14.16H120.015ZM129.359 17.36H141.903V50H129.359V17.36ZM167.295 24.848C167.295 23.6107 166.868 22.7787 166.015 22.352C165.162 21.8827 164.074 21.648 162.751 21.648C161.13 21.648 159.572 21.7973 158.079 22.096C156.586 22.3947 155.092 22.8213 153.599 23.376V14.416C155.519 13.9893 157.503 13.6053 159.551 13.264C161.642 12.88 163.732 12.688 165.823 12.688C168.17 12.688 170.324 12.9867 172.287 13.584C174.25 14.1387 175.828 15.1627 177.023 16.656C178.218 18.1493 178.815 20.2827 178.815 23.056V50H168.831L167.295 44.496V24.848ZM164.095 42.064V49.936C162.986 50.4053 161.791 50.64 160.511 50.64C158.804 50.64 157.204 50.2133 155.711 49.36C154.218 48.464 153.002 47.184 152.063 45.52C151.124 43.856 150.655 41.8507 150.655 39.504C150.655 35.92 151.892 33.1893 154.367 31.312C156.884 29.392 160.127 28.4107 164.095 28.368V35.152C163.412 35.4507 162.858 35.8773 162.431 36.432C162.047 36.944 161.855 37.6053 161.855 38.416C161.855 39.3973 162.068 40.208 162.495 40.848C162.922 41.4453 163.455 41.8507 164.095 42.064ZM194.311 29.84H182.407C182.577 26.5547 183.153 23.8027 184.135 21.584C185.159 19.3653 186.481 17.616 188.103 16.336C189.767 15.0133 191.601 14.0747 193.607 13.52C195.655 12.9653 197.767 12.688 199.943 12.688C201.436 12.688 202.801 12.7947 204.039 13.008C205.276 13.2213 206.556 13.5413 207.879 13.968V28.368H201.287L200.007 21.712C198.257 21.712 196.892 22.3093 195.911 23.504C194.972 24.6987 194.439 26.8107 194.311 29.84ZM182.343 33.104H194.311C194.481 36.176 195.164 38.3307 196.359 39.568C197.596 40.8053 199.217 41.424 201.223 41.424C203.271 41.3813 205.575 41.04 208.135 40.4V49.488C206.812 49.872 205.255 50.1493 203.463 50.32C201.671 50.5333 200.028 50.64 198.535 50.64C195.591 50.64 192.924 50.1493 190.535 49.168C188.145 48.144 186.225 46.352 184.775 43.792C183.324 41.232 182.513 37.6693 182.343 33.104ZM212.123 13.2H223.643V50H212.123V13.2ZM211.803 1.68H223.963V10.384H211.803V1.68ZM239.436 29.84H227.532C227.702 26.5547 228.278 23.8027 229.26 21.584C230.284 19.3653 231.606 17.616 233.228 16.336C234.892 15.0133 236.726 14.0747 238.732 13.52C240.78 12.9653 242.892 12.688 245.068 12.688C246.561 12.688 247.926 12.7947 249.164 13.008C250.401 13.2213 251.681 13.5413 253.004 13.968V28.368H246.412L245.132 21.712C243.382 21.712 242.017 22.3093 241.036 23.504C240.097 24.6987 239.564 26.8107 239.436 29.84ZM227.468 33.104H239.436C239.606 36.176 240.289 38.3307 241.484 39.568C242.721 40.8053 244.342 41.424 246.348 41.424C248.396 41.3813 250.7 41.04 253.26 40.4V49.488C251.937 49.872 250.38 50.1493 248.588 50.32C246.796 50.5333 245.153 50.64 243.66 50.64C240.716 50.64 238.049 50.1493 235.66 49.168C233.27 48.144 231.35 46.352 229.9 43.792C228.449 41.232 227.638 37.6693 227.468 33.104Z"/>
</mask>
<path class="titleheader" d="M24.488 50V51H25.7245L25.4659 49.7908L24.488 50ZM11.816 50L10.841 50.2221L11.0182 51H11.816V50ZM1.32 3.92V2.92H0.0666089L0.344974 4.14209L1.32 3.92ZM14.632 3.92L15.6099 3.71084L15.4407 2.92H14.632V3.92ZM27.24 47.632L26.2622 47.8414L28.2152 47.8533L27.24 47.632ZM21.8 22.224L20.8111 22.0753L20.784 22.2553L20.8222 22.4334L21.8 22.224ZM24.552 3.92V2.92H23.6911L23.5631 3.77132L24.552 3.92ZM37.16 3.92L38.1352 4.14131L38.4124 2.92H37.16V3.92ZM24.488 50V49H11.816V50V51H24.488V50ZM11.816 50L12.791 49.7779L2.29503 3.69791L1.32 3.92L0.344974 4.14209L10.841 50.2221L11.816 50ZM1.32 3.92V4.92H14.632V3.92V2.92H1.32V3.92ZM14.632 3.92L13.6541 4.12916L23.5101 50.2092L24.488 50L25.4659 49.7908L15.6099 3.71084L14.632 3.92ZM27.24 47.632L28.2178 47.4226L22.7778 22.0146L21.8 22.224L20.8222 22.4334L26.2622 47.8414L27.24 47.632ZM21.8 22.224L22.7889 22.3727L25.5409 4.06868L24.552 3.92L23.5631 3.77132L20.8111 22.0753L21.8 22.224ZM24.552 3.92V4.92H37.16V3.92V2.92H24.552V3.92ZM37.16 3.92L36.1848 3.69869L26.2648 47.4107L27.24 47.632L28.2152 47.8533L38.1352 4.14131L37.16 3.92ZM54.076 41.488H55.076V40.6151L54.2111 40.4972L54.076 41.488ZM54.076 49.808L54.3922 50.7567L55.076 50.5288V49.808H54.076ZM42.62 47.76L41.9291 48.483L41.9371 48.4905L42.62 47.76ZM39.74 13.2V12.2H38.74V13.2H39.74ZM51.26 13.2H52.26V12.2H51.26V13.2ZM56.636 45.072H55.636V45.2422L55.6923 45.4029L56.636 45.072ZM56.636 13.2V12.2H55.636V13.2H56.636ZM68.156 13.2H69.156V12.2H68.156V13.2ZM68.156 50V51H69.156V50H68.156ZM58.364 50L57.4203 50.3309L57.655 51H58.364V50ZM54.076 41.488H53.076V49.808H54.076H55.076V41.488H54.076ZM54.076 49.808L53.7598 48.8593C52.4414 49.2988 51.1829 49.512 49.98 49.512V50.512V51.512C51.4224 51.512 52.8946 51.2559 54.3922 50.7567L54.076 49.808ZM49.98 50.512V49.512C47.2631 49.512 45.0619 48.6737 43.3029 47.0295L42.62 47.76L41.9371 48.4905C44.1035 50.5156 46.8089 51.512 49.98 51.512V50.512ZM42.62 47.76L43.3109 47.037C41.6542 45.454 40.74 43.0073 40.74 39.504H39.74H38.74C38.74 43.3394 39.7458 46.3966 41.9291 48.483L42.62 47.76ZM39.74 39.504H40.74V13.2H39.74H38.74V39.504H39.74ZM39.74 13.2V14.2H51.26V13.2V12.2H39.74V13.2ZM51.26 13.2H50.26V37.648H51.26H52.26V13.2H51.26ZM51.26 37.648H50.26C50.26 38.9205 50.5171 40.054 51.1576 40.9274C51.8179 41.8278 52.7896 42.3218 53.9409 42.4788L54.076 41.488L54.2111 40.4972C53.485 40.3982 53.0487 40.1242 52.7704 39.7446C52.4722 39.338 52.26 38.6795 52.26 37.648H51.26ZM56.636 45.072H57.636V13.2H56.636H55.636V45.072H56.636ZM56.636 13.2V14.2H68.156V13.2V12.2H56.636V13.2ZM68.156 13.2H67.156V50H68.156H69.156V13.2H68.156ZM68.156 50V49H58.364V50V51H68.156V50ZM58.364 50L59.3077 49.6691L57.5797 44.7411L56.636 45.072L55.6923 45.4029L57.4203 50.3309L58.364 50ZM84.7675 18L85.6663 18.4384L85.7675 18.2309V18H84.7675ZM73.2475 41.616H72.2475L74.1463 42.0544L73.2475 41.616ZM73.2475 3.216L73.1153 2.22477L72.2475 2.34048V3.216H73.2475ZM84.7675 1.68H85.7675V0.537813L84.6353 0.688769L84.7675 1.68ZM84.8315 50V51H85.4549L85.7293 50.4403L84.8315 50ZM72.6075 50L71.709 49.5609L71.0058 51H72.6075V50ZM90.5915 13.2V12.2H89.9672L89.693 12.7609L90.5915 13.2ZM102.88 13.2L103.777 13.6403L104.484 12.2H102.88V13.2ZM89.7595 47.248L88.8593 46.8124L88.684 47.1748L88.8086 47.5576L89.7595 47.248ZM96.4795 33.36L97.4128 33.001L96.5845 30.8472L95.5793 32.9244L96.4795 33.36ZM102.88 50V51H104.336L103.813 49.641L102.88 50ZM90.6555 50L89.7046 50.3096L89.9294 51H90.6555V50ZM84.7675 18L83.8687 17.5616L72.3487 41.1776L73.2475 41.616L74.1463 42.0544L85.6663 18.4384L84.7675 18ZM73.2475 41.616H74.2475V3.216H73.2475H72.2475V41.616H73.2475ZM73.2475 3.216L73.3797 4.20723L84.8997 2.67122L84.7675 1.68L84.6353 0.688769L73.1153 2.22477L73.2475 3.216ZM84.7675 1.68H83.7675V18H84.7675H85.7675V1.68H84.7675ZM84.8315 50V49H72.6075V50V51H84.8315V50ZM72.6075 50L73.506 50.4391L91.49 13.6391L90.5915 13.2L89.693 12.7609L71.709 49.5609L72.6075 50ZM90.5915 13.2V14.2H102.88V13.2V12.2H90.5915V13.2ZM102.88 13.2L101.982 12.7597L83.9337 49.5597L84.8315 50L85.7293 50.4403L103.777 13.6403L102.88 13.2ZM89.7595 47.248L90.6597 47.6836L97.3797 33.7956L96.4795 33.36L95.5793 32.9244L88.8593 46.8124L89.7595 47.248ZM96.4795 33.36L95.5462 33.719L101.946 50.359L102.88 50L103.813 49.641L97.4128 33.001L96.4795 33.36ZM102.88 50V49H90.6555V50V51H102.88V50ZM90.6555 50L91.6064 49.6904L90.7104 46.9384L89.7595 47.248L88.8086 47.5576L89.7046 50.3096L90.6555 50ZM120.015 14.16H119.015V15.16H120.015V14.16ZM120.015 3.92V2.92H119.015V3.92H120.015ZM152.271 3.92L153.254 4.10429L153.476 2.92H152.271V3.92ZM150.351 14.16V15.16H151.181L151.334 14.3443L150.351 14.16ZM129.359 17.36V16.36H128.359V17.36H129.359ZM141.903 17.36H142.903V16.36H141.903V17.36ZM141.903 50V51H142.903V50H141.903ZM129.359 50H128.359V51H129.359V50ZM120.015 14.16H121.015V3.92H120.015H119.015V14.16H120.015ZM120.015 3.92V4.92H152.271V3.92V2.92H120.015V3.92ZM152.271 3.92L151.288 3.73571L149.368 13.9757L150.351 14.16L151.334 14.3443L153.254 4.10429L152.271 3.92ZM150.351 14.16V13.16H120.015V14.16V15.16H150.351V14.16ZM129.359 17.36V18.36H141.903V17.36V16.36H129.359V17.36ZM141.903 17.36H140.903V50H141.903H142.903V17.36H141.903ZM141.903 50V49H129.359V50V51H141.903V50ZM129.359 50H130.359V17.36H129.359H128.359V50H129.359ZM166.015 22.352L165.533 23.2282L165.55 23.2377L165.568 23.2464L166.015 22.352ZM158.079 22.096L158.275 23.0766L158.275 23.0766L158.079 22.096ZM153.599 23.376H152.599V24.8142L153.947 24.3134L153.599 23.376ZM153.599 14.416L153.382 13.4398L152.599 13.6138V14.416H153.599ZM159.551 13.264L159.715 14.2504L159.724 14.249L159.732 14.2475L159.551 13.264ZM172.287 13.584L171.996 14.5407L172.005 14.5436L172.015 14.5463L172.287 13.584ZM177.023 16.656L176.242 17.2807L176.242 17.2807L177.023 16.656ZM178.815 50V51H179.815V50H178.815ZM168.831 50L167.868 50.2688L168.072 51H168.831V50ZM167.295 44.496H166.295V44.6329L166.332 44.7648L167.295 44.496ZM164.095 42.064H165.095V41.3432L164.411 41.1153L164.095 42.064ZM164.095 49.936L164.485 50.857L165.095 50.5987V49.936H164.095ZM155.711 49.36L155.197 50.2175L155.206 50.223L155.215 50.2282L155.711 49.36ZM152.063 45.52L151.192 46.0113L151.192 46.0113L152.063 45.52ZM154.367 31.312L154.971 32.1087L154.973 32.1071L154.367 31.312ZM164.095 28.368H165.095V27.3572L164.084 27.3681L164.095 28.368ZM164.095 35.152L164.496 36.0682L165.095 35.806V35.152H164.095ZM162.431 36.432L161.638 35.8222L161.631 35.832L162.431 36.432ZM162.495 40.848L161.663 41.4027L161.672 41.4161L161.681 41.4292L162.495 40.848ZM167.295 24.848H168.295C168.295 23.3648 167.759 22.1059 166.462 21.4576L166.015 22.352L165.568 23.2464C165.978 23.4515 166.295 23.8566 166.295 24.848H167.295ZM166.015 22.352L166.497 21.4758C165.452 20.9013 164.184 20.648 162.751 20.648V21.648V22.648C163.963 22.648 164.871 22.864 165.533 23.2282L166.015 22.352ZM162.751 21.648V20.648C161.068 20.648 159.445 20.803 157.883 21.1154L158.079 22.096L158.275 23.0766C159.7 22.7916 161.191 22.648 162.751 22.648V21.648ZM158.079 22.096L157.883 21.1154C156.335 21.4249 154.791 21.8664 153.251 22.4386L153.599 23.376L153.947 24.3134C155.393 23.7763 156.836 23.3644 158.275 23.0766L158.079 22.096ZM153.599 23.376H154.599V14.416H153.599H152.599V23.376H153.599ZM153.599 14.416L153.816 15.3922C155.718 14.9696 157.684 14.589 159.715 14.2504L159.551 13.264L159.387 12.2776C157.322 12.6217 155.32 13.0091 153.382 13.4398L153.599 14.416ZM159.551 13.264L159.732 14.2475C161.764 13.8743 163.794 13.688 165.823 13.688V12.688V11.688C163.671 11.688 161.52 11.8857 159.37 12.2805L159.551 13.264ZM165.823 12.688V13.688C168.085 13.688 170.14 13.9759 171.996 14.5407L172.287 13.584L172.578 12.6273C170.509 11.9975 168.254 11.688 165.823 11.688V12.688ZM172.287 13.584L172.015 14.5463C173.791 15.0482 175.187 15.9613 176.242 17.2807L177.023 16.656L177.804 16.0313C176.47 14.364 174.708 13.2291 172.559 12.6217L172.287 13.584ZM177.023 16.656L176.242 17.2807C177.243 18.5323 177.815 20.4105 177.815 23.056H178.815H179.815C179.815 20.1548 179.192 17.7664 177.804 16.0313L177.023 16.656ZM178.815 23.056H177.815V50H178.815H179.815V23.056H178.815ZM178.815 50V49H168.831V50V51H178.815V50ZM168.831 50L169.794 49.7312L168.258 44.2272L167.295 44.496L166.332 44.7648L167.868 50.2688L168.831 50ZM167.295 44.496H168.295V24.848H167.295H166.295V44.496H167.295ZM164.095 42.064H163.095V49.936H164.095H165.095V42.064H164.095ZM164.095 49.936L163.705 49.015C162.727 49.429 161.666 49.64 160.511 49.64V50.64V51.64C161.916 51.64 163.244 51.3817 164.485 50.857L164.095 49.936ZM160.511 50.64V49.64C158.98 49.64 157.551 49.2595 156.207 48.4918L155.711 49.36L155.215 50.2282C156.858 51.1672 158.629 51.64 160.511 51.64V50.64ZM155.711 49.36L156.225 48.5025C154.895 47.7041 153.796 46.5568 152.934 45.0287L152.063 45.52L151.192 46.0113C152.207 47.8112 153.541 49.2239 155.197 50.2175L155.711 49.36ZM152.063 45.52L152.934 45.0287C152.097 43.5453 151.655 41.7175 151.655 39.504H150.655H149.655C149.655 41.9838 150.151 44.1667 151.192 46.0113L152.063 45.52ZM150.655 39.504H151.655C151.655 36.1782 152.786 33.7662 154.971 32.1087L154.367 31.312L153.763 30.5153C150.998 32.6125 149.655 35.6618 149.655 39.504H150.655ZM154.367 31.312L154.973 32.1071C157.28 30.3478 160.298 29.4089 164.106 29.3679L164.095 28.368L164.084 27.3681C159.956 27.4124 156.489 28.4362 153.761 30.5169L154.367 31.312ZM164.095 28.368H163.095V35.152H164.095H165.095V28.368H164.095ZM164.095 35.152L163.694 34.2358C162.868 34.5975 162.174 35.1254 161.638 35.8223L162.431 36.432L163.224 37.0417C163.541 36.6292 163.957 36.3038 164.496 36.0682L164.095 35.152ZM162.431 36.432L161.631 35.832C161.086 36.5586 160.855 37.4473 160.855 38.416H161.855H162.855C162.855 37.7634 163.008 37.3294 163.231 37.032L162.431 36.432ZM161.855 38.416H160.855C160.855 39.5406 161.1 40.5585 161.663 41.4027L162.495 40.848L163.327 40.2933C163.037 39.8575 162.855 39.2541 162.855 38.416H161.855ZM162.495 40.848L161.681 41.4292C162.219 42.1826 162.92 42.7266 163.779 43.0127L164.095 42.064L164.411 41.1153C163.99 40.9748 163.624 40.7081 163.309 40.2668L162.495 40.848ZM194.311 29.84V30.84H195.269L195.31 29.8822L194.311 29.84ZM182.407 29.84L181.408 29.7881L181.353 30.84H182.407V29.84ZM184.135 21.584L183.227 21.1649L183.223 21.1722L183.22 21.1795L184.135 21.584ZM188.103 16.336L188.722 17.1209L188.725 17.1188L188.103 16.336ZM193.607 13.52L193.345 12.5548L193.34 12.5562L193.607 13.52ZM204.039 13.008L204.208 12.0225L204.208 12.0225L204.039 13.008ZM207.879 13.968H208.879V13.2398L208.186 13.0163L207.879 13.968ZM207.879 28.368V29.368H208.879V28.368H207.879ZM201.287 28.368L200.304 28.5568L200.46 29.368H201.287V28.368ZM200.007 21.712L200.989 21.5232L200.833 20.712H200.007V21.712ZM195.911 23.504L195.138 22.8693L195.131 22.8776L195.124 22.8862L195.911 23.504ZM182.343 33.104V32.104H181.304L181.343 33.1414L182.343 33.104ZM194.311 33.104L195.309 33.0485L195.256 32.104H194.311V33.104ZM196.359 39.568L195.639 40.2626L195.645 40.2689L195.651 40.2751L196.359 39.568ZM201.223 41.424V42.424H201.233L201.243 42.4238L201.223 41.424ZM208.135 40.4H209.135V39.1192L207.892 39.4299L208.135 40.4ZM208.135 49.488L208.413 50.4483L209.135 50.239V49.488H208.135ZM203.463 50.32L203.368 49.3245L203.356 49.3256L203.344 49.327L203.463 50.32ZM190.535 49.168L190.141 50.0871L190.148 50.0901L190.155 50.093L190.535 49.168ZM184.775 43.792L183.904 44.285L183.904 44.285L184.775 43.792ZM194.311 29.84V28.84H182.407V29.84V30.84H194.311V29.84ZM182.407 29.84L183.405 29.8919C183.572 26.6877 184.131 24.0638 185.049 21.9885L184.135 21.584L183.22 21.1795C182.175 23.5415 181.583 26.4216 181.408 29.7881L182.407 29.84ZM184.135 21.584L185.042 22.0031C186.012 19.9013 187.245 18.287 188.722 17.1209L188.103 16.336L187.483 15.5511C185.717 16.945 184.305 18.8294 183.227 21.1649L184.135 21.584ZM188.103 16.336L188.725 17.1188C190.286 15.8779 192 15.0019 193.873 14.4838L193.607 13.52L193.34 12.5562C191.202 13.1475 189.247 14.1488 187.48 15.5532L188.103 16.336ZM193.607 13.52L193.868 14.4852C195.829 13.9542 197.853 13.688 199.943 13.688V12.688V11.688C197.68 11.688 195.48 11.9764 193.345 12.5548L193.607 13.52ZM199.943 12.688V13.688C201.389 13.688 202.697 13.7914 203.869 13.9935L204.039 13.008L204.208 12.0225C202.906 11.7979 201.482 11.688 199.943 11.688V12.688ZM204.039 13.008L203.869 13.9935C205.055 14.198 206.289 14.506 207.571 14.9197L207.879 13.968L208.186 13.0163C206.823 12.5767 205.497 12.2447 204.208 12.0225L204.039 13.008ZM207.879 13.968H206.879V28.368H207.879H208.879V13.968H207.879ZM207.879 28.368V27.368H201.287V28.368V29.368H207.879V28.368ZM201.287 28.368L202.269 28.1792L200.989 21.5232L200.007 21.712L199.024 21.9008L200.304 28.5568L201.287 28.368ZM200.007 21.712V20.712C198.002 20.712 196.336 21.4112 195.138 22.8693L195.911 23.504L196.683 24.1387C197.448 23.2075 198.512 22.712 200.007 22.712V21.712ZM195.911 23.504L195.124 22.8862C193.979 24.3436 193.441 26.7329 193.311 29.7978L194.311 29.84L195.31 29.8822C195.436 26.8885 195.965 25.0537 196.697 24.1218L195.911 23.504ZM182.343 33.104V34.104H194.311V33.104V32.104H182.343V33.104ZM194.311 33.104L193.312 33.1595C193.487 36.3015 194.189 38.7606 195.639 40.2626L196.359 39.568L197.078 38.8734C196.139 37.9007 195.476 36.0505 195.309 33.0485L194.311 33.104ZM196.359 39.568L195.651 40.2751C197.104 41.7277 198.994 42.424 201.223 42.424V41.424V40.424C199.44 40.424 198.088 39.8829 197.066 38.8609L196.359 39.568ZM201.223 41.424L201.243 42.4238C203.384 42.3792 205.764 42.0234 208.377 41.3701L208.135 40.4L207.892 39.4299C205.385 40.0566 203.157 40.3835 201.202 40.4242L201.223 41.424ZM208.135 40.4H207.135V49.488H208.135H209.135V40.4H208.135ZM208.135 49.488L207.856 48.5277C206.608 48.8898 205.115 49.1581 203.368 49.3245L203.463 50.32L203.557 51.3155C205.394 51.1406 207.016 50.8542 208.413 50.4483L208.135 49.488ZM203.463 50.32L203.344 49.327C201.584 49.5366 199.981 49.64 198.535 49.64V50.64V51.64C200.074 51.64 201.757 51.5301 203.581 51.313L203.463 50.32ZM198.535 50.64V49.64C195.703 49.64 193.168 49.1684 190.914 48.243L190.535 49.168L190.155 50.093C192.68 51.1303 195.478 51.64 198.535 51.64V50.64ZM190.535 49.168L190.928 48.2489C188.766 47.3222 187.002 45.695 185.645 43.299L184.775 43.792L183.904 44.285C185.448 47.009 187.524 48.9658 190.141 50.0871L190.535 49.168ZM184.775 43.792L185.645 43.299C184.305 40.9344 183.509 37.552 183.342 33.0666L182.343 33.104L181.343 33.1414C181.517 37.7866 182.343 41.5296 183.904 44.285L184.775 43.792ZM212.123 13.2V12.2H211.123V13.2H212.123ZM223.643 13.2H224.643V12.2H223.643V13.2ZM223.643 50V51H224.643V50H223.643ZM212.123 50H211.123V51H212.123V50ZM211.803 1.68V0.679996H210.803V1.68H211.803ZM223.963 1.68H224.963V0.679996H223.963V1.68ZM223.963 10.384V11.384H224.963V10.384H223.963ZM211.803 10.384H210.803V11.384H211.803V10.384ZM212.123 13.2V14.2H223.643V13.2V12.2H212.123V13.2ZM223.643 13.2H222.643V50H223.643H224.643V13.2H223.643ZM223.643 50V49H212.123V50V51H223.643V50ZM212.123 50H213.123V13.2H212.123H211.123V50H212.123ZM211.803 1.68V2.68H223.963V1.68V0.679996H211.803V1.68ZM223.963 1.68H222.963V10.384H223.963H224.963V1.68H223.963ZM223.963 10.384V9.384H211.803V10.384V11.384H223.963V10.384ZM211.803 10.384H212.803V1.68H211.803H210.803V10.384H211.803ZM239.436 29.84V30.84H240.394L240.435 29.8822L239.436 29.84ZM227.532 29.84L226.533 29.7881L226.478 30.84H227.532V29.84ZM229.26 21.584L228.352 21.1649L228.348 21.1722L228.345 21.1795L229.26 21.584ZM233.228 16.336L233.847 17.1209L233.85 17.1188L233.228 16.336ZM238.732 13.52L238.47 12.5548L238.465 12.5562L238.732 13.52ZM249.164 13.008L249.333 12.0225L249.333 12.0225L249.164 13.008ZM253.004 13.968H254.004V13.2398L253.311 13.0163L253.004 13.968ZM253.004 28.368V29.368H254.004V28.368H253.004ZM246.412 28.368L245.429 28.5568L245.585 29.368H246.412V28.368ZM245.132 21.712L246.114 21.5232L245.958 20.712H245.132V21.712ZM241.036 23.504L240.263 22.8693L240.256 22.8776L240.249 22.8862L241.036 23.504ZM227.468 33.104V32.104H226.429L226.468 33.1414L227.468 33.104ZM239.436 33.104L240.434 33.0485L240.381 32.104H239.436V33.104ZM241.484 39.568L240.764 40.2626L240.77 40.2689L240.776 40.2751L241.484 39.568ZM246.348 41.424V42.424H246.358L246.368 42.4238L246.348 41.424ZM253.26 40.4H254.26V39.1192L253.017 39.4299L253.26 40.4ZM253.26 49.488L253.538 50.4483L254.26 50.239V49.488H253.26ZM248.588 50.32L248.493 49.3245L248.481 49.3256L248.469 49.327L248.588 50.32ZM235.66 49.168L235.266 50.0871L235.273 50.0901L235.28 50.093L235.66 49.168ZM229.9 43.792L229.029 44.285L229.029 44.285L229.9 43.792ZM239.436 29.84V28.84H227.532V29.84V30.84H239.436V29.84ZM227.532 29.84L228.53 29.8919C228.697 26.6877 229.256 24.0638 230.174 21.9885L229.26 21.584L228.345 21.1795C227.3 23.5415 226.708 26.4216 226.533 29.7881L227.532 29.84ZM229.26 21.584L230.167 22.0031C231.137 19.9013 232.37 18.287 233.847 17.1209L233.228 16.336L232.608 15.5511C230.842 16.945 229.43 18.8294 228.352 21.1649L229.26 21.584ZM233.228 16.336L233.85 17.1188C235.411 15.8779 237.125 15.0019 238.998 14.4838L238.732 13.52L238.465 12.5562C236.327 13.1475 234.372 14.1488 232.605 15.5532L233.228 16.336ZM238.732 13.52L238.993 14.4852C240.954 13.9542 242.978 13.688 245.068 13.688V12.688V11.688C242.805 11.688 240.605 11.9764 238.47 12.5548L238.732 13.52ZM245.068 12.688V13.688C246.514 13.688 247.822 13.7914 248.994 13.9935L249.164 13.008L249.333 12.0225C248.031 11.7979 246.607 11.688 245.068 11.688V12.688ZM249.164 13.008L248.994 13.9935C250.18 14.198 251.414 14.506 252.696 14.9197L253.004 13.968L253.311 13.0163C251.948 12.5767 250.622 12.2447 249.333 12.0225L249.164 13.008ZM253.004 13.968H252.004V28.368H253.004H254.004V13.968H253.004ZM253.004 28.368V27.368H246.412V28.368V29.368H253.004V28.368ZM246.412 28.368L247.394 28.1792L246.114 21.5232L245.132 21.712L244.149 21.9008L245.429 28.5568L246.412 28.368ZM245.132 21.712V20.712C243.127 20.712 241.461 21.4112 240.263 22.8693L241.036 23.504L241.808 24.1387C242.573 23.2075 243.637 22.712 245.132 22.712V21.712ZM241.036 23.504L240.249 22.8862C239.104 24.3436 238.566 26.7329 238.436 29.7978L239.436 29.84L240.435 29.8822C240.561 26.8885 241.09 25.0537 241.822 24.1218L241.036 23.504ZM227.468 33.104V34.104H239.436V33.104V32.104H227.468V33.104ZM239.436 33.104L238.437 33.1595C238.612 36.3015 239.314 38.7606 240.764 40.2626L241.484 39.568L242.203 38.8734C241.264 37.9007 240.601 36.0505 240.434 33.0485L239.436 33.104ZM241.484 39.568L240.776 40.2751C242.229 41.7277 244.119 42.424 246.348 42.424V41.424V40.424C244.565 40.424 243.213 39.8829 242.191 38.8609L241.484 39.568ZM246.348 41.424L246.368 42.4238C248.509 42.3792 250.889 42.0234 253.502 41.3701L253.26 40.4L253.017 39.4299C250.51 40.0566 248.282 40.3835 246.327 40.4242L246.348 41.424ZM253.26 40.4H252.26V49.488H253.26H254.26V40.4H253.26ZM253.26 49.488L252.981 48.5277C251.733 48.8898 250.24 49.1581 248.493 49.3245L248.588 50.32L248.682 51.3155C250.519 51.1406 252.141 50.8542 253.538 50.4483L253.26 49.488ZM248.588 50.32L248.469 49.327C246.709 49.5366 245.106 49.64 243.66 49.64V50.64V51.64C245.199 51.64 246.882 51.5301 248.706 51.313L248.588 50.32ZM243.66 50.64V49.64C240.828 49.64 238.293 49.1684 236.039 48.243L235.66 49.168L235.28 50.093C237.805 51.1303 240.603 51.64 243.66 51.64V50.64ZM235.66 49.168L236.053 48.2489C233.891 47.3222 232.127 45.695 230.77 43.299L229.9 43.792L229.029 44.285C230.573 47.009 232.649 48.9658 235.266 50.0871L235.66 49.168ZM229.9 43.792L230.77 43.299C229.43 40.9344 228.634 37.552 228.467 33.0666L227.468 33.104L226.468 33.1414C226.642 37.7866 227.468 41.5296 229.029 44.285L229.9 43.792Z" fill="white" mask="url(#path-1-outside-1_3_2)"/>
</svg>
